999
dxfrw 0.6.3
  0
SECTION
  2
HEADER
  9
$ACADVER
  1
AC1021
  9
$DWGCODEPAGE
  3
ANSI_1252
  9
$INSBASE
 10
0
 20
0
 30
0
  9
$EXTMIN
 10
100
 20
-7.499999999957355
 30
0
  9
$EXTMAX
 10
360
 20
112.5
 30
0
  9
$LIMMIN
 10
0
 20
0
  9
$LIMMAX
 10
420
 20
297
  9
$ORTHOMODE
 70
    0
  9
$REGENMODE
 70
    1
  9
$FILLMODE
 70
    1
  9
$QTEXTMODE
 70
    0
  9
$MIRRTEXT
 70
    0
  9
$LTSCALE
 40
1
  9
$ATTMODE
 70
    0
  9
$TEXTSIZE
 40
2.5
  9
$TRACEWID
 40
15.68
  9
$TEXTSTYLE
  7
STANDARD
  9
$CLAYER
  8
0
  9
$CELTYPE
  6
BYLAYER
  9
$CECOLOR
 62
  256
  9
$CELTSCALE
 40
1
  9
$DISPSILH
 70
    0
  9
$DIMSCALE
 40
2.5
  9
$DIMASZ
 40
2.5
  9
$DIMEXO
 40
0.625
  9
$DIMDLI
 40
3.75
  9
$DIMRND
 40
0
  9
$DIMDLE
 40
0
  9
$DIMEXE
 40
1.25
  9
$DIMTP
 40
0
  9
$DIMTM
 40
0
  9
$DIMTXT
 40
2.5
  9
$DIMCEN
 40
2.5
  9
$DIMTSZ
 40
0
  9
$DIMTOL
 70
    0
  9
$DIMLIM
 70
    0
  9
$DIMTIH
 70
    0
  9
$DIMTOH
 70
    0
  9
$DIMSE1
 70
    0
  9
$DIMSE2
 70
    0
  9
$DIMTAD
 70
    1
  9
$DIMZIN
 70
    8
  9
$DIMBLK
  1

  9
$DIMASO
 70
    1
  9
$DIMSHO
 70
    1
  9
$DIMPOST
  1

  9
$DIMAPOST
  1

  9
$DIMALT
 70
    0
  9
$DIMALTD
 70
    3
  9
$DIMALTF
 40
0.03937
  9
$DIMLFAC
 40
1
  9
$DIMTOFL
 70
    1
  9
$DIMTVP
 40
0
  9
$DIMTIX
 70
    0
  9
$DIMSOXD
 70
    0
  9
$DIMSAH
 70
    0
  9
$DIMBLK1
  1

  9
$DIMBLK2
  1

  9
$DIMSTYLE
  2
STANDARD
  9
$DIMCLRD
 70
    0
  9
$DIMCLRE
 70
    0
  9
$DIMCLRT
 70
    0
  9
$DIMTFAC
 40
1
  9
$DIMGAP
 40
0.625
  9
$DIMJUST
 70
    0
  9
$DIMSD1
 70
    0
  9
$DIMSD2
 70
    0
  9
$DIMTOLJ
 70
    0
  9
$DIMTZIN
 70
    8
  9
$DIMALTZ
 70
    0
  9
$DIMALTTZ
 70
    0
  9
$DIMUPT
 70
    0
  9
$DIMDEC
 70
    4
  9
$DIMTDEC
 70
    2
  9
$DIMALTU
 70
    2
  9
$DIMALTTD
 70
    3
  9
$DIMTXSTY
  7
standard
  9
$DIMAUNIT
 70
    0
  9
$DIMADEC
 70
    2
  9
$DIMALTRND
 40
0
  9
$DIMAZIN
 70
    0
  9
$DIMDSEP
 70
    0
  9
$DIMATFIT
 70
    3
  9
$DIMFRAC
 70
    0
  9
$DIMLDRBLK
  1
STANDARD
  9
$DIMLUNIT
 70
    2
  9
$DIMLWD
 70
   -2
  9
$DIMLWE
 70
   -2
  9
$DIMTMOVE
 70
    0
  9
$DIMFXL
 40
1
  9
$DIMFXLON
 70
    0
  9
$DIMJOGANG
 40
0.7854
  9
$DIMTFILL
 70
    0
  9
$DIMTFILLCLR
 70
    0
  9
$DIMARCSYM
 70
    0
  9
$DIMLTYPE
  6

  9
$DIMLTEX1
  6

  9
$DIMLTEX2
  6

  9
$LUNITS
 70
    2
  9
$LUPREC
 70
    4
  9
$SKETCHINC
 40
1
  9
$FILLETRAD
 40
0
  9
$AUNITS
 70
    0
  9
$AUPREC
 70
    2
  9
$MENU
  1
.
  9
$ELEVATION
 40
0
  9
$PELEVATION
 40
0
  9
$THICKNESS
 40
0
  9
$LIMCHECK
 70
    0
  9
$CHAMFERA
 40
0
  9
$CHAMFERB
 40
0
  9
$CHAMFERC
 40
0
  9
$CHAMFERD
 40
0
  9
$SKPOLY
 70
    0
  9
$USRTIMER
 70
    1
  9
$ANGBASE
 50
0
  9
$ANGDIR
 70
    0
  9
$PDMODE
 70
   34
  9
$PDSIZE
 40
0
  9
$PLINEWID
 40
0
  9
$SPLFRAME
 70
    0
  9
$SPLINETYPE
 70
    2
  9
$SPLINESEGS
 70
    8
  9
$HANDSEED
  5
20000
  9
$SURFTAB1
 70
    6
  9
$SURFTAB2
 70
    6
  9
$SURFTYPE
 70
    6
  9
$SURFU
 70
    6
  9
$SURFV
 70
    6
  9
$UCSBASE
  2

  9
$UCSNAME
  2

  9
$UCSORG
 10
0
 20
0
 30
0
  9
$UCSXDIR
 10
1
 20
0
 30
0
  9
$UCSYDIR
 10
0
 20
1
 30
0
  9
$UCSORTHOREF
  2

  9
$UCSORTHOVIEW
 70
    0
  9
$UCSORGTOP
 10
0
 20
0
 30
0
  9
$UCSORGBOTTOM
 10
0
 20
0
 30
0
  9
$UCSORGLEFT
 10
0
 20
0
 30
0
  9
$UCSORGRIGHT
 10
0
 20
0
 30
0
  9
$UCSORGFRONT
 10
0
 20
0
 30
0
  9
$UCSORGBACK
 10
0
 20
0
 30
0
  9
$PUCSBASE
  2

  9
$PUCSNAME
  2

  9
$PUCSORG
 10
0
 20
0
 30
0
  9
$PUCSXDIR
 10
1
 20
0
 30
0
  9
$PUCSYDIR
 10
0
 20
1
 30
0
  9
$PUCSORTHOREF
  2

  9
$PUCSORTHOVIEW
 70
    0
  9
$PUCSORGTOP
 10
0
 20
0
 30
0
  9
$PUCSORGBOTTOM
 10
0
 20
0
 30
0
  9
$PUCSORGLEFT
 10
0
 20
0
 30
0
  9
$PUCSORGRIGHT
 10
0
 20
0
 30
0
  9
$PUCSORGFRONT
 10
0
 20
0
 30
0
  9
$PUCSORGBACK
 10
0
 20
0
 30
0
  9
$USERI1
 70
    0
  9
$USERI2
 70
    0
  9
$USERI3
 70
    0
  9
$USERI4
 70
    0
  9
$USERI5
 70
    0
  9
$USERR1
 40
0
  9
$USERR2
 40
0
  9
$USERR3
 40
0
  9
$USERR4
 40
0
  9
$USERR5
 40
0
  9
$WORLDVIEW
 70
    1
  9
$SHADEDGE
 70
    3
  9
$SHADEDIF
 70
   70
  9
$TILEMODE
 70
    1
  9
$MAXACTVP
 70
   64
  9
$PINSBASE
 10
-77.4444823604336
 20
10.97703407634852
 30
0
  9
$PLIMCHECK
 70
    0
  9
$PEXTMIN
 10
0
 20
0
 30
0
  9
$PEXTMAX
 10
0
 20
0
 30
0
  9
$GRIDMODE
 70
    1
  9
$SNAPSTYLE
 70
    0
  9
$GRIDUNIT
 10
0
 20
0
  9
$PLIMMIN
 10
0
 20
0
  9
$PLIMMAX
 10
300
 20
130
  9
$UNITMODE
 70
    0
  9
$VISRETAIN
 70
    1
  9
$PLINEGEN
 70
    0
  9
$PSLTSCALE
 70
    1
  9
$TREEDEPTH
 70
 3020
  9
$CMLSTYLE
  2
Standard
  9
$CMLJUST
 70
    0
  9
$CMLSCALE
 40
20
  9
$PROXYGRAPHICS
 70
    1
  9
$MEASUREMENT
 70
    1
  9
$CELWEIGHT
370
   -1
  9
$ENDCAPS
280
    0
  9
$JOINSTYLE
280
    0
  9
$LWDISPLAY
290
    0
  9
$INSUNITS
 70
    4
  9
$HYPERLINKBASE
  1

  9
$STYLESHEET
  1

  9
$XEDIT
290
    1
  9
$CEPSNTYPE
380
    0
  9
$PSTYLEMODE
290
    1
  9
$EXTNAMES
290
    1
  9
$PSVPSCALE
 40
1
  9
$OLESTARTUP
290
    0
  9
$SORTENTS
280
  127
  9
$INDEXCTL
280
    0
  9
$HIDETEXT
280
    1
  9
$XCLIPFRAME
290
    0
  9
$HALOGAP
280
    0
  9
$OBSCOLOR
 70
  257
  9
$OBSLTYPE
280
    0
  9
$INTERSECTIONDISPLAY
280
    0
  9
$INTERSECTIONCOLOR
 70
  257
  9
$DIMASSOC
280
    1
  9
$PROJECTNAME
  1

  9
$CAMERADISPLAY
290
    0
  9
$LENSLENGTH
 40
50
  9
$CAMERAHEIGHT
 40
0
  9
$STEPSPERSEC
 40
2
  9
$STEPSIZE
 40
50
  9
$3DDWFPREC
 40
2
  9
$PSOLWIDTH
 40
5
  9
$PSOLHEIGHT
 40
80
  9
$LOFTANG1
 40
1.570796326794897
  9
$LOFTANG2
 40
1.570796326794897
  9
$LOFTMAG1
 40
0
  9
$LOFTMAG2
 40
0
  9
$LOFTPARAM
 70
    7
  9
$LOFTNORMALS
280
    1
  9
$LATITUDE
 40
1
  9
$LONGITUDE
 40
1
  9
$NORTHDIRECTION
 40
0
  9
$TIMEZONE
 70
-8000
  9
$LIGHTGLYPHDISPLAY
280
    1
  9
$TILEMODELIGHTSYNCH
280
    1
  9
$SOLIDHIST
280
    1
  9
$SHOWHIST
280
    1
  9
$DWFFRAME
280
    2
  9
$DGNFRAME
280
    0
  9
$REALWORLDSCALE
290
    1
  9
$INTERFERECOLOR
 62
    1
  9
$CSHADOW
280
    0
  9
$SHADOWPLANELOCATION
 40
0
  0
ENDSEC
  0
SECTION
  2
CLASSES
  0
ENDSEC
  0
SECTION
  2
TABLES
  0
TABLE
  2
VPORT
  5
8
330
0
100
AcDbSymbolTable
 70
    1
  0
VPORT
  5
31
330
2
100
AcDbSymbolTableRecord
100
AcDbViewportTableRecord
  2
*ACTIVE
 70
    0
 10
0
 20
0
 11
1
 21
1
 12
46.19111709285036
 22
-4.522207267831503
 13
0
 23
0
 14
10
 24
10
 15
10
 25
10
 16
0
 26
0
 36
1
 17
0
 27
0
 37
0
 40
15.50471063256515
 41
1.777777777777778
 42
50
 43
0
 44
0
 50
0
 51
0
 71
    0
 72
  100
 73
    1
 74
    3
 75
    0
 76
    1
 77
    0
 78
    0
281
    0
 65
    1
110
0
120
0
130
0
111
1
121
0
131
0
112
0
122
1
132
0
 79
    0
146
0
348
10020
 60
    7
 61
    5
292
1
282
    1
141
0
142
0
 63
  250
421
3358443
  0
ENDTAB
  0
TABLE
  2
LTYPE
  5
5
330
0
100
AcDbSymbolTable
 70
    4
  0
LTYPE
  5
14
330
5
100
AcDbSymbolTableRecord
100
AcDbLinetypeTableRecord
  2
ByBlock
 70
    0
  3

 72
   65
 73
    0
 40
0
  0
LTYPE
  5
15
330
5
100
AcDbSymbolTableRecord
100
AcDbLinetypeTableRecord
  2
ByLayer
 70
    0
  3

 72
   65
 73
    0
 40
0
  0
LTYPE
  5
16
330
5
100
AcDbSymbolTableRecord
100
AcDbLinetypeTableRecord
  2
Continuous
 70
    0
  3
Solid line
 72
   65
 73
    0
 40
0
  0
LTYPE
  5
32
330
5
100
AcDbSymbolTableRecord
100
AcDbLinetypeTableRecord
  2
DOT
 70
    0
  3
Dot . . . . . . . . . . . . . . . . . . . . . .
 72
   65
 73
    2
 40
6.35
 49
0
 74
    0
 49
-6.35
 74
    0
  0
LTYPE
  5
33
330
5
100
AcDbSymbolTableRecord
100
AcDbLinetypeTableRecord
  2
DOTTINY
 70
    0
  3
Dot (.15x) .....................................
 72
   65
 73
    2
 40
0.9525
 49
0
 74
    0
 49
-0.9525
 74
    0
  0
LTYPE
  5
34
330
5
100
AcDbSymbolTableRecord
100
AcDbLinetypeTableRecord
  2
DOT2
 70
    0
  3
Dot (.5x) .....................................
 72
   65
 73
    2
 40
3.175
 49
0
 74
    0
 49
-3.175
 74
    0
  0
LTYPE
  5
35
330
5
100
AcDbSymbolTableRecord
100
AcDbLinetypeTableRecord
  2
DOTX2
 70
    0
  3
Dot (2x) .  .  .  .  .  .  .  .  .  .  .  .  .
 72
   65
 73
    2
 40
12.7
 49
0
 74
    0
 49
-12.7
 74
    0
  0
LTYPE
  5
36
330
5
100
AcDbSymbolTableRecord
100
AcDbLinetypeTableRecord
  2
DASHED
 70
    0
  3
Dashed _ _ _ _ _ _ _ _ _ _ _ _ _ _ _ _ _
 72
   65
 73
    2
 40
19.05
 49
12.7
 74
    0
 49
-6.35
 74
    0
  0
LTYPE
  5
37
330
5
100
AcDbSymbolTableRecord
100
AcDbLinetypeTableRecord
  2
DASHEDTINY
 70
    0
  3
Dashed (.15x) _ _ _ _ _ _ _ _ _ _ _ _ _ _ _ _ _
 72
   65
 73
    2
 40
2.8575
 49
1.905
 74
    0
 49
-0.9525
 74
    0
  0
LTYPE
  5
38
330
5
100
AcDbSymbolTableRecord
100
AcDbLinetypeTableRecord
  2
DASHED2
 70
    0
  3
Dashed (.5x) _ _ _ _ _ _ _ _ _ _ _ _ _ _ _ _ _
 72
   65
 73
    2
 40
9.524999999999999
 49
6.35
 74
    0
 49
-3.175
 74
    0
  0
LTYPE
  5
39
330
5
100
AcDbSymbolTableRecord
100
AcDbLinetypeTableRecord
  2
DASHEDX2
 70
    0
  3
Dashed (2x) ____  ____  ____  ____  ____  ___
 72
   65
 73
    2
 40
38.09999999999999
 49
25.4
 74
    0
 49
-12.7
 74
    0
  0
LTYPE
  5
3A
330
5
100
AcDbSymbolTableRecord
100
AcDbLinetypeTableRecord
  2
DASHDOT
 70
    0
  3
Dash dot __ . __ . __ . __ . __ . __ . __ . __
 72
   65
 73
    4
 40
25.4
 49
12.7
 74
    0
 49
-6.35
 74
    0
 49
0
 74
    0
 49
-6.35
 74
    0
  0
LTYPE
  5
3B
330
5
100
AcDbSymbolTableRecord
100
AcDbLinetypeTableRecord
  2
DASHDOTTINY
 70
    0
  3
Dash dot (.15x) _._._._._._._._._._._._._._._.
 72
   65
 73
    4
 40
3.81
 49
1.905
 74
    0
 49
-0.9525
 74
    0
 49
0
 74
    0
 49
-0.9525
 74
    0
  0
LTYPE
  5
3C
330
5
100
AcDbSymbolTableRecord
100
AcDbLinetypeTableRecord
  2
DASHDOT2
 70
    0
  3
Dash dot (.5x) _._._._._._._._._._._._._._._.
 72
   65
 73
    4
 40
12.7
 49
6.35
 74
    0
 49
-3.175
 74
    0
 49
0
 74
    0
 49
-3.175
 74
    0
  0
LTYPE
  5
3D
330
5
100
AcDbSymbolTableRecord
100
AcDbLinetypeTableRecord
  2
DASHDOTX2
 70
    0
  3
Dash dot (2x) ____  .  ____  .  ____  .  ___
 72
   65
 73
    4
 40
50.8
 49
25.4
 74
    0
 49
-12.7
 74
    0
 49
0
 74
    0
 49
-12.7
 74
    0
  0
LTYPE
  5
3E
330
5
100
AcDbSymbolTableRecord
100
AcDbLinetypeTableRecord
  2
DIVIDE
 70
    0
  3
Divide ____ . . ____ . . ____ . . ____ . . ____
 72
   65
 73
    6
 40
31.75
 49
12.7
 74
    0
 49
-6.35
 74
    0
 49
0
 74
    0
 49
-6.35
 74
    0
 49
0
 74
    0
 49
-6.35
 74
    0
  0
LTYPE
  5
3F
330
5
100
AcDbSymbolTableRecord
100
AcDbLinetypeTableRecord
  2
DIVIDETINY
 70
    0
  3
Divide (.15x) __..__..__..__..__..__..__..__.._
 72
   65
 73
    6
 40
4.7625
 49
1.905
 74
    0
 49
-0.9525
 74
    0
 49
0
 74
    0
 49
-0.9525
 74
    0
 49
0
 74
    0
 49
-0.9525
 74
    0
  0
LTYPE
  5
40
330
5
100
AcDbSymbolTableRecord
100
AcDbLinetypeTableRecord
  2
DIVIDE2
 70
    0
  3
Divide (.5x) __..__..__..__..__..__..__..__.._
 72
   65
 73
    6
 40
15.875
 49
6.35
 74
    0
 49
-3.175
 74
    0
 49
0
 74
    0
 49
-3.175
 74
    0
 49
0
 74
    0
 49
-3.175
 74
    0
  0
LTYPE
  5
41
330
5
100
AcDbSymbolTableRecord
100
AcDbLinetypeTableRecord
  2
DIVIDEX2
 70
    0
  3
Divide (2x) ________  .  .  ________  .  .  _
 72
   65
 73
    6
 40
63.5
 49
25.4
 74
    0
 49
-12.7
 74
    0
 49
0
 74
    0
 49
-12.7
 74
    0
 49
0
 74
    0
 49
-12.7
 74
    0
  0
LTYPE
  5
42
330
5
100
AcDbSymbolTableRecord
100
AcDbLinetypeTableRecord
  2
BORDER
 70
    0
  3
Border __ __ . __ __ . __ __ . __ __ . __ __ .
 72
   65
 73
    6
 40
44.45
 49
12.7
 74
    0
 49
-6.35
 74
    0
 49
12.7
 74
    0
 49
-6.35
 74
    0
 49
0
 74
    0
 49
-6.35
 74
    0
  0
LTYPE
  5
43
330
5
100
AcDbSymbolTableRecord
100
AcDbLinetypeTableRecord
  2
BORDERTINY
 70
    0
  3
Border (.15x) __.__.__.__.__.__.__.__.__.__.__.
 72
   65
 73
    6
 40
6.6675
 49
1.905
 74
    0
 49
-0.9525
 74
    0
 49
1.905
 74
    0
 49
-0.9525
 74
    0
 49
0
 74
    0
 49
-0.9525
 74
    0
  0
LTYPE
  5
44
330
5
100
AcDbSymbolTableRecord
100
AcDbLinetypeTableRecord
  2
BORDER2
 70
    0
  3
Border (.5x) __.__.__.__.__.__.__.__.__.__.__.
 72
   65
 73
    6
 40
22.225
 49
6.35
 74
    0
 49
-3.175
 74
    0
 49
6.35
 74
    0
 49
-3.175
 74
    0
 49
0
 74
    0
 49
-3.175
 74
    0
  0
LTYPE
  5
45
330
5
100
AcDbSymbolTableRecord
100
AcDbLinetypeTableRecord
  2
BORDERX2
 70
    0
  3
Border (2x) ____  ____  .  ____  ____  .  ___
 72
   65
 73
    6
 40
88.89999999999999
 49
25.4
 74
    0
 49
-12.7
 74
    0
 49
25.4
 74
    0
 49
-12.7
 74
    0
 49
0
 74
    0
 49
-12.7
 74
    0
  0
LTYPE
  5
46
330
5
100
AcDbSymbolTableRecord
100
AcDbLinetypeTableRecord
  2
CENTER
 70
    0
  3
Center ____ _ ____ _ ____ _ ____ _ ____ _ ____
 72
   65
 73
    4
 40
50.8
 49
31.75
 74
    0
 49
-6.35
 74
    0
 49
6.35
 74
    0
 49
-6.35
 74
    0
  0
LTYPE
  5
47
330
5
100
AcDbSymbolTableRecord
100
AcDbLinetypeTableRecord
  2
CENTERTINY
 70
    0
  3
Center (.15x) ___ _ ___ _ ___ _ ___ _ ___ _ ___
 72
   65
 73
    4
 40
7.619999999999999
 49
4.7625
 74
    0
 49
-0.9525
 74
    0
 49
0.9525
 74
    0
 49
-0.9525
 74
    0
  0
LTYPE
  5
48
330
5
100
AcDbSymbolTableRecord
100
AcDbLinetypeTableRecord
  2
CENTER2
 70
    0
  3
Center (.5x) ___ _ ___ _ ___ _ ___ _ ___ _ ___
 72
   65
 73
    4
 40
28.575
 49
19.05
 74
    0
 49
-3.175
 74
    0
 49
3.175
 74
    0
 49
-3.175
 74
    0
  0
LTYPE
  5
49
330
5
100
AcDbSymbolTableRecord
100
AcDbLinetypeTableRecord
  2
CENTERX2
 70
    0
  3
Center (2x) ________  __  ________  __  _____
 72
   65
 73
    4
 40
101.6
 49
63.5
 74
    0
 49
-12.7
 74
    0
 49
12.7
 74
    0
 49
-12.7
 74
    0
  0
ENDTAB
  0
TABLE
  2
LAYER
  5
2
330
0
100
AcDbSymbolTable
 70
    1
  0
LAYER
  5
10
330
2
100
AcDbSymbolTableRecord
100
AcDbLayerTableRecord
  2
0
 70
    0
 62
    7
  6
CONTINUOUS
370
    0
390
F
  0
ENDTAB
  0
TABLE
  2
STYLE
  5
3
330
0
100
AcDbSymbolTable
 70
    3
  0
STYLE
  5
4A
330
2
100
AcDbSymbolTableRecord
100
AcDbTextStyleTableRecord
  2
romant
 70
    0
 40
0
 41
1
 50
0
 71
    0
 42
1
  3
romant
  4

  0
STYLE
  5
4B
330
2
100
AcDbSymbolTableRecord
100
AcDbTextStyleTableRecord
  2
romans
 70
    0
 40
0
 41
1
 50
0
 71
    0
 42
1
  3
romans
  4

  0
STYLE
  5
4C
330
2
100
AcDbSymbolTableRecord
100
AcDbTextStyleTableRecord
  2
Standard
 70
    0
 40
0
 41
1
 50
0
 71
    0
 42
1
  3
txt
  4

  0
ENDTAB
  0
TABLE
  2
VIEW
  5
6
330
0
100
AcDbSymbolTable
 70
    0
  0
ENDTAB
  0
TABLE
  2
UCS
  5
7
330
0
100
AcDbSymbolTable
 70
    0
  0
ENDTAB
  0
TABLE
  2
APPID
  5
9
330
0
100
AcDbSymbolTable
 70
    1
  0
APPID
  5
12
330
9
100
AcDbSymbolTableRecord
100
AcDbRegAppTableRecord
  2
ACAD
 70
    0
  0
APPID
  5
4D
330
9
100
AcDbSymbolTableRecord
100
AcDbRegAppTableRecord
  2
LibreCad
 70
    0
  0
ENDTAB
  0
TABLE
  2
DIMSTYLE
  5
A
330
0
100
AcDbSymbolTable
 70
    1
100
AcDbDimStyleTable
 71
    1
  0
DIMSTYLE
105
4E
330
A
100
AcDbSymbolTableRecord
100
AcDbDimStyleTableRecord
  2
Standard
 70
    0
 40
2.5
 41
2.5
 42
0.625
 43
0.38
 44
1.25
 45
0
 46
0
 47
0
 48
0
 49
1
140
2.5
141
0.09
142
0
143
25.4
144
1
145
0
146
1
147
0.625
148
0
 71
    0
 72
    0
 73
    0
 74
    1
 75
    0
 76
    0
 77
    0
 78
    8
 79
    0
170
    0
171
    2
172
    0
173
    0
174
    0
175
    0
176
    0
177
    0
178
    0
179
    2
271
    4
272
    4
273
    2
274
    2
275
    0
276
    0
277
    2
278
    0
279
    0
280
    0
281
    0
282
    0
283
    1
284
    0
285
    0
286
    0
288
    0
289
    3
340
standard
341

371
   -2
372
   -2
  0
ENDTAB
  0
TABLE
  2
BLOCK_RECORD
  5
1
330
0
100
AcDbSymbolTable
 70
    2
  0
BLOCK_RECORD
  5
1F
330
1
100
AcDbSymbolTableRecord
100
AcDbBlockTableRecord
  2
*Model_Space
 70
    0
280
    1
281
    0
  0
BLOCK_RECORD
  5
1E
330
1
100
AcDbSymbolTableRecord
100
AcDbBlockTableRecord
  2
*Paper_Space
 70
    0
280
    1
281
    0
  0
ENDTAB
  0
ENDSEC
  0
SECTION
  2
BLOCKS
  0
BLOCK
  5
20
330
1F
100
AcDbEntity
  8
0
100
AcDbBlockBegin
  2
*Model_Space
 70
    0
 10
0
 20
0
 30
0
  3
*Model_Space
  1

  0
ENDBLK
  5
21
330
1F
100
AcDbEntity
  8
0
100
AcDbBlockEnd
  0
BLOCK
  5
1C
330
1B
100
AcDbEntity
  8
0
100
AcDbBlockBegin
  2
*Paper_Space
 70
    0
 10
0
 20
0
 30
0
  3
*Paper_Space
  1

  0
ENDBLK
  5
1D
330
1F
100
AcDbEntity
  8
0
100
AcDbBlockEnd
  0
ENDSEC
  0
SECTION
  2
ENTITIES
  0
HATCH
  5
4F
100
AcDbEntity
  8
0
  6
ByLayer
 62
  161
420
5614335
370
   20
100
AcDbHatch
 10
0
 20
0
 30
0
210
0
220
0
230
1
  2
SOLID
 70
    1
 71
    0
 91
    1
 92
    0
 93
    4
 72
    1
 10
270
 20
100
 11
270
 21
0
 72
    1
 10
270
 20
0
 11
275
 21
0
 72
    1
 10
275
 20
0
 11
275
 21
100
 72
    1
 10
275
 20
100
 11
270
 21
100
 97
    0
 75
    0
 76
    1
 98
    0
  0
HATCH
  5
50
100
AcDbEntity
  8
0
  6
ByLayer
 62
  161
420
5614335
370
   20
100
AcDbHatch
 10
0
 20
0
 30
0
210
0
220
0
230
1
  2
SOLID
 70
    1
 71
    0
 91
    1
 92
    0
 93
    4
 72
    1
 10
100
 20
0
 11
200
 21
0
 72
    1
 10
200
 20
0
 11
200
 21
5
 72
    1
 10
200
 20
5
 11
100
 21
5
 72
    1
 10
100
 20
5
 11
100
 21
0
 97
    0
 75
    0
 76
    1
 98
    0
  0
HATCH
  5
51
100
AcDbEntity
  8
0
  6
ByLayer
 62
  161
420
5614335
370
   20
100
AcDbHatch
 10
0
 20
0
 30
0
210
0
220
0
230
1
  2
SOLID
 70
    1
 71
    0
 91
    1
 92
    0
 93
    4
 72
    1
 10
220
 20
0
 11
220
 21
5
 72
    1
 10
220
 20
5
 11
240
 21
5
 72
    1
 10
240
 20
5
 11
240
 21
0
 72
    1
 10
240
 20
0
 11
220
 21
0
 97
    0
 75
    0
 76
    1
 98
    0
  0
HATCH
  5
52
100
AcDbEntity
  8
0
  6
ByLayer
 62
   51
370
   20
100
AcDbHatch
 10
0
 20
0
 30
0
210
0
220
0
230
1
  2
SOLID
 70
    1
 71
    0
 91
    1
 92
    0
 93
    4
 72
    1
 10
110
 20
100
 11
110
 21
95
 72
    1
 10
110
 20
95
 11
130
 21
95
 72
    1
 10
130
 20
95
 11
130
 21
100
 72
    1
 10
130
 20
100
 11
110
 21
100
 97
    0
 75
    0
 76
    1
 98
    0
  0
HATCH
  5
53
100
AcDbEntity
  8
0
  6
ByLayer
 62
   51
370
   20
100
AcDbHatch
 10
0
 20
0
 30
0
210
0
220
0
230
1
  2
SOLID
 70
    1
 71
    0
 91
    1
 92
    0
 93
    4
 72
    1
 10
150
 20
100
 11
150
 21
95
 72
    1
 10
150
 20
95
 11
170
 21
95
 72
    1
 10
170
 20
95
 11
170
 21
100
 72
    1
 10
170
 20
100
 11
150
 21
100
 97
    0
 75
    0
 76
    1
 98
    0
  0
HATCH
  5
54
100
AcDbEntity
  8
0
  6
ByLayer
 62
   51
370
   20
100
AcDbHatch
 10
0
 20
0
 30
0
210
0
220
0
230
1
  2
SOLID
 70
    1
 71
    0
 91
    1
 92
    0
 93
    4
 72
    1
 10
190
 20
100
 11
190
 21
95
 72
    1
 10
190
 20
95
 11
200
 21
95
 72
    1
 10
200
 20
95
 11
200
 21
100
 72
    1
 10
200
 20
100
 11
190
 21
100
 97
    0
 75
    0
 76
    1
 98
    0
  0
HATCH
  5
55
100
AcDbEntity
  8
0
  6
ByLayer
 62
   51
370
   20
100
AcDbHatch
 10
0
 20
0
 30
0
210
0
220
0
230
1
  2
SOLID
 70
    1
 71
    0
 91
    1
 92
    0
 93
    4
 72
    1
 10
220
 20
100
 11
240
 21
100
 72
    1
 10
240
 20
100
 11
240
 21
95
 72
    1
 10
240
 20
95
 11
220
 21
95
 72
    1
 10
220
 20
95
 11
220
 21
100
 97
    0
 75
    0
 76
    1
 98
    0
  0
HATCH
  5
56
100
AcDbEntity
  8
0
  6
ByLayer
 62
    7
370
   20
100
AcDbHatch
 10
0
 20
0
 30
0
210
0
220
0
230
1
  2
SOLID
 70
    1
 71
    0
 91
    1
 92
    0
 93
    3
 72
    2
 10
134.9183364803003
 20
30.93528075834819
 40
1.25
 50
56.30989764584402
 51
162.570102354156
 73
    0
 72
    1
 10
133.7257312860152
 20
30.56085740095153
 11
133.6702631883391
 21
27.39906624874995
 72
    1
 10
133.6702631883391
 20
27.39906624874995
 11
135.6117123578009
 21
29.89521831190555
 97
    0
 75
    0
 76
    1
 98
    0
  0
HATCH
  5
57
100
AcDbEntity
  8
0
  6
ByLayer
 62
    7
370
   20
100
AcDbHatch
 10
0
 20
0
 30
0
210
0
220
0
230
1
  2
SOLID
 70
    1
 71
    0
 91
    1
 92
    0
 93
    1
 72
    2
 10
136
 20
34
 40
2
 50
0
 51
360
 73
    1
 97
    0
 75
    0
 76
    1
 98
    0
  0
HATCH
  5
58
100
AcDbEntity
  8
0
  6
ByLayer
 62
    7
370
   20
100
AcDbHatch
 10
0
 20
0
 30
0
210
0
220
0
230
1
  2
SOLID
 70
    1
 71
    0
 91
    1
 92
    0
 93
    3
 72
    2
 10
128.9183364803003
 20
27.93528075834819
 40
1.25
 50
56.30989764584402
 51
162.570102354156
 73
    0
 72
    1
 10
127.7257312860152
 20
27.56085740095153
 11
127.6702631883391
 21
24.39906624874995
 72
    1
 10
127.6702631883391
 20
24.39906624874995
 11
129.6117123578009
 21
26.89521831190555
 97
    0
 75
    0
 76
    1
 98
    0
  0
HATCH
  5
59
100
AcDbEntity
  8
0
  6
ByLayer
 62
    7
370
   20
100
AcDbHatch
 10
0
 20
0
 30
0
210
0
220
0
230
1
  2
SOLID
 70
    1
 71
    0
 91
    1
 92
    0
 93
    1
 72
    2
 10
130
 20
31
 40
2
 50
0
 51
360
 73
    1
 97
    0
 75
    0
 76
    1
 98
    0
  0
HATCH
  5
5A
100
AcDbEntity
  8
0
  6
ByLayer
 62
    7
370
   20
100
AcDbHatch
 10
0
 20
0
 30
0
210
0
220
0
230
1
  2
SOLID
 70
    1
 71
    0
 91
    1
 92
    0
 93
    3
 72
    2
 10
134.9183364803003
 20
19.93528075834819
 40
1.25
 50
56.30989764584402
 51
162.570102354156
 73
    0
 72
    1
 10
133.7257312860152
 20
19.56085740095153
 11
133.6702631883391
 21
16.39906624874995
 72
    1
 10
133.6702631883391
 20
16.39906624874995
 11
135.6117123578009
 21
18.89521831190555
 97
    0
 75
    0
 76
    1
 98
    0
  0
HATCH
  5
5B
100
AcDbEntity
  8
0
  6
ByLayer
 62
    7
370
   20
100
AcDbHatch
 10
0
 20
0
 30
0
210
0
220
0
230
1
  2
SOLID
 70
    1
 71
    0
 91
    1
 92
    0
 93
    1
 72
    2
 10
136
 20
23
 40
2
 50
0
 51
360
 73
    1
 97
    0
 75
    0
 76
    1
 98
    0
  0
HATCH
  5
5C
100
AcDbEntity
  8
0
  6
ByLayer
 62
    7
370
   20
100
AcDbHatch
 10
0
 20
0
 30
0
210
0
220
0
230
1
  2
SOLID
 70
    1
 71
    0
 91
    1
 92
    0
 93
    3
 72
    2
 10
127.9183364803003
 20
15.93528075834819
 40
1.25
 50
56.30989764584402
 51
162.570102354156
 73
    0
 72
    1
 10
126.7257312860152
 20
15.56085740095153
 11
126.6702631883391
 21
12.39906624874995
 72
    1
 10
126.6702631883391
 20
12.39906624874995
 11
128.6117123578009
 21
14.89521831190555
 97
    0
 75
    0
 76
    1
 98
    0
  0
HATCH
  5
5D
100
AcDbEntity
  8
0
  6
ByLayer
 62
    7
370
   20
100
AcDbHatch
 10
0
 20
0
 30
0
210
0
220
0
230
1
  2
SOLID
 70
    1
 71
    0
 91
    1
 92
    0
 93
    1
 72
    2
 10
129
 20
19
 40
2
 50
0
 51
360
 73
    1
 97
    0
 75
    0
 76
    1
 98
    0
  0
HATCH
  5
5E
100
AcDbEntity
  8
0
  6
ByLayer
 62
    7
370
   20
100
AcDbHatch
 10
0
 20
0
 30
0
210
0
220
0
230
1
  2
SOLID
 70
    1
 71
    0
 91
    1
 92
    0
 93
    3
 72
    2
 10
134.9183364803003
 20
9.935280758348192
 40
1.25
 50
56.30989764584402
 51
162.570102354156
 73
    0
 72
    1
 10
133.7257312860152
 20
9.560857400951527
 11
133.6702631883391
 21
6.399066248749946
 72
    1
 10
133.6702631883391
 20
6.399066248749946
 11
135.6117123578009
 21
8.895218311905552
 97
    0
 75
    0
 76
    1
 98
    0
  0
HATCH
  5
5F
100
AcDbEntity
  8
0
  6
ByLayer
 62
    7
370
   20
100
AcDbHatch
 10
0
 20
0
 30
0
210
0
220
0
230
1
  2
SOLID
 70
    1
 71
    0
 91
    1
 92
    0
 93
    1
 72
    2
 10
136
 20
13
 40
2
 50
0
 51
360
 73
    1
 97
    0
 75
    0
 76
    1
 98
    0
  0
HATCH
  5
60
100
AcDbEntity
  8
0
  6
ByLayer
 62
    7
370
   20
100
AcDbHatch
 10
0
 20
0
 30
0
210
0
220
0
230
1
  2
SOLID
 70
    1
 71
    0
 91
    1
 92
    0
 93
    3
 72
    2
 10
120.9183364803003
 20
10.93528075834819
 40
1.25
 50
56.30989764584402
 51
162.570102354156
 73
    0
 72
    1
 10
119.7257312860152
 20
10.56085740095153
 11
119.6702631883391
 21
7.399066248749946
 72
    1
 10
119.6702631883391
 20
7.399066248749946
 11
121.6117123578009
 21
9.895218311905552
 97
    0
 75
    0
 76
    1
 98
    0
  0
HATCH
  5
61
100
AcDbEntity
  8
0
  6
ByLayer
 62
    7
370
   20
100
AcDbHatch
 10
0
 20
0
 30
0
210
0
220
0
230
1
  2
SOLID
 70
    1
 71
    0
 91
    1
 92
    0
 93
    1
 72
    2
 10
122
 20
14
 40
2
 50
0
 51
360
 73
    1
 97
    0
 75
    0
 76
    1
 98
    0
  0
HATCH
  5
62
100
AcDbEntity
  8
0
  6
ByLayer
 62
    7
370
   20
100
AcDbHatch
 10
0
 20
0
 30
0
210
0
220
0
230
1
  2
SOLID
 70
    1
 71
    0
 91
    1
 92
    0
 93
    3
 72
    2
 10
134.9183364803003
 20
50.93528075834819
 40
1.25
 50
56.30989764584402
 51
162.570102354156
 73
    0
 72
    1
 10
133.7257312860152
 20
50.56085740095153
 11
133.6702631883391
 21
47.39906624874995
 72
    1
 10
133.6702631883391
 20
47.39906624874995
 11
135.6117123578009
 21
49.89521831190555
 97
    0
 75
    0
 76
    1
 98
    0
  0
HATCH
  5
63
100
AcDbEntity
  8
0
  6
ByLayer
 62
    7
370
   20
100
AcDbHatch
 10
0
 20
0
 30
0
210
0
220
0
230
1
  2
SOLID
 70
    1
 71
    0
 91
    1
 92
    0
 93
    1
 72
    2
 10
136
 20
54
 40
2
 50
0
 51
360
 73
    1
 97
    0
 75
    0
 76
    1
 98
    0
  0
HATCH
  5
64
100
AcDbEntity
  8
0
  6
ByLayer
 62
    7
370
   20
100
AcDbHatch
 10
0
 20
0
 30
0
210
0
220
0
230
1
  2
SOLID
 70
    1
 71
    0
 91
    1
 92
    0
 93
    3
 72
    2
 10
129.9183364803003
 20
38.93528075834819
 40
1.25
 50
56.30989764584402
 51
162.570102354156
 73
    0
 72
    1
 10
128.7257312860152
 20
38.56085740095153
 11
128.6702631883391
 21
35.39906624874995
 72
    1
 10
128.6702631883391
 20
35.39906624874995
 11
130.6117123578009
 21
37.89521831190555
 97
    0
 75
    0
 76
    1
 98
    0
  0
HATCH
  5
65
100
AcDbEntity
  8
0
  6
ByLayer
 62
    7
370
   20
100
AcDbHatch
 10
0
 20
0
 30
0
210
0
220
0
230
1
  2
SOLID
 70
    1
 71
    0
 91
    1
 92
    0
 93
    1
 72
    2
 10
131
 20
42
 40
2
 50
0
 51
360
 73
    1
 97
    0
 75
    0
 76
    1
 98
    0
  0
HATCH
  5
66
100
AcDbEntity
  8
0
  6
ByLayer
 62
    7
370
   20
100
AcDbHatch
 10
0
 20
0
 30
0
210
0
220
0
230
1
  2
SOLID
 70
    1
 71
    0
 91
    1
 92
    0
 93
    1
 72
    2
 10
144
 20
40
 40
2
 50
0
 51
360
 73
    1
 97
    0
 75
    0
 76
    1
 98
    0
  0
HATCH
  5
67
100
AcDbEntity
  8
0
  6
ByLayer
 62
    7
370
   20
100
AcDbHatch
 10
0
 20
0
 30
0
210
0
220
0
230
1
  2
SOLID
 70
    1
 71
    0
 91
    1
 92
    0
 93
    3
 72
    2
 10
145.3395460971115
 20
37.0388994860503
 40
1.25
 50
12.52879764584403
 51
118.789002354156
 73
    0
 72
    1
 10
144.7375642690758
 20
35.94340056833526
 11
146.8851762091633
 21
33.62224504687756
 72
    1
 10
146.8851762091633
 20
33.62224504687756
 11
146.559779969968
 21
36.76773662809622
 97
    0
 75
    0
 76
    1
 98
    0
  0
HATCH
  5
68
100
AcDbEntity
  8
0
  6
ByLayer
 62
    7
370
   20
100
AcDbHatch
 10
0
 20
0
 30
0
210
0
220
0
230
1
  2
SOLID
 70
    1
 71
    0
 91
    1
 92
    0
 93
    1
 72
    2
 10
143
 20
32
 40
2
 50
0
 51
360
 73
    1
 97
    0
 75
    0
 76
    1
 98
    0
  0
HATCH
  5
69
100
AcDbEntity
  8
0
  6
ByLayer
 62
    7
370
   20
100
AcDbHatch
 10
0
 20
0
 30
0
210
0
220
0
230
1
  2
SOLID
 70
    1
 71
    0
 91
    1
 92
    0
 93
    3
 72
    2
 10
144.3395460971115
 20
29.0388994860503
 40
1.25
 50
12.52879764584403
 51
118.789002354156
 73
    0
 72
    1
 10
143.7375642690758
 20
27.94340056833526
 11
145.8851762091633
 21
25.62224504687756
 72
    1
 10
145.8851762091633
 20
25.62224504687756
 11
145.559779969968
 21
28.76773662809622
 97
    0
 75
    0
 76
    1
 98
    0
  0
HATCH
  5
6A
100
AcDbEntity
  8
0
  6
ByLayer
 62
    7
370
   20
100
AcDbHatch
 10
0
 20
0
 30
0
210
0
220
0
230
1
  2
SOLID
 70
    1
 71
    0
 91
    1
 92
    0
 93
    1
 72
    2
 10
149
 20
56
 40
2
 50
0
 51
360
 73
    1
 97
    0
 75
    0
 76
    1
 98
    0
  0
HATCH
  5
6B
100
AcDbEntity
  8
0
  6
ByLayer
 62
    7
370
   20
100
AcDbHatch
 10
0
 20
0
 30
0
210
0
220
0
230
1
  2
SOLID
 70
    1
 71
    0
 91
    1
 92
    0
 93
    3
 72
    2
 10
150.3395460971115
 20
53.0388994860503
 40
1.25
 50
12.52879764584403
 51
118.789002354156
 73
    0
 72
    1
 10
149.7375642690758
 20
51.94340056833526
 11
151.8851762091633
 21
49.62224504687756
 72
    1
 10
151.8851762091633
 20
49.62224504687756
 11
151.559779969968
 21
52.76773662809622
 97
    0
 75
    0
 76
    1
 98
    0
  0
HATCH
  5
6C
100
AcDbEntity
  8
0
  6
ByLayer
 62
    7
370
   20
100
AcDbHatch
 10
0
 20
0
 30
0
210
0
220
0
230
1
  2
SOLID
 70
    1
 71
    0
 91
    1
 92
    0
 93
    1
 72
    2
 10
150
 20
43
 40
2
 50
0
 51
360
 73
    1
 97
    0
 75
    0
 76
    1
 98
    0
  0
HATCH
  5
6D
100
AcDbEntity
  8
0
  6
ByLayer
 62
    7
370
   20
100
AcDbHatch
 10
0
 20
0
 30
0
210
0
220
0
230
1
  2
SOLID
 70
    1
 71
    0
 91
    1
 92
    0
 93
    3
 72
    2
 10
151.3395460971115
 20
40.0388994860503
 40
1.25
 50
12.52879764584403
 51
118.789002354156
 73
    0
 72
    1
 10
150.7375642690758
 20
38.94340056833526
 11
152.8851762091633
 21
36.62224504687756
 72
    1
 10
152.8851762091633
 20
36.62224504687756
 11
152.559779969968
 21
39.76773662809622
 97
    0
 75
    0
 76
    1
 98
    0
  0
HATCH
  5
6E
100
AcDbEntity
  8
0
  6
ByLayer
 62
    7
370
   20
100
AcDbHatch
 10
0
 20
0
 30
0
210
0
220
0
230
1
  2
SOLID
 70
    1
 71
    0
 91
    1
 92
    0
 93
    1
 72
    2
 10
150
 20
30
 40
2
 50
0
 51
360
 73
    1
 97
    0
 75
    0
 76
    1
 98
    0
  0
HATCH
  5
6F
100
AcDbEntity
  8
0
  6
ByLayer
 62
    7
370
   20
100
AcDbHatch
 10
0
 20
0
 30
0
210
0
220
0
230
1
  2
SOLID
 70
    1
 71
    0
 91
    1
 92
    0
 93
    3
 72
    2
 10
151.3395460971115
 20
27.0388994860503
 40
1.25
 50
12.52879764584403
 51
118.789002354156
 73
    0
 72
    1
 10
150.7375642690758
 20
25.94340056833526
 11
152.8851762091633
 21
23.62224504687756
 72
    1
 10
152.8851762091633
 20
23.62224504687756
 11
152.559779969968
 21
26.76773662809622
 97
    0
 75
    0
 76
    1
 98
    0
  0
HATCH
  5
70
100
AcDbEntity
  8
0
  6
ByLayer
 62
    7
370
   20
100
AcDbHatch
 10
0
 20
0
 30
0
210
0
220
0
230
1
  2
SOLID
 70
    1
 71
    0
 91
    1
 92
    0
 93
    1
 72
    2
 10
143
 20
22
 40
2
 50
0
 51
360
 73
    1
 97
    0
 75
    0
 76
    1
 98
    0
  0
HATCH
  5
71
100
AcDbEntity
  8
0
  6
ByLayer
 62
    7
370
   20
100
AcDbHatch
 10
0
 20
0
 30
0
210
0
220
0
230
1
  2
SOLID
 70
    1
 71
    0
 91
    1
 92
    0
 93
    3
 72
    2
 10
144.3395460971115
 20
19.0388994860503
 40
1.25
 50
12.52879764584403
 51
118.789002354156
 73
    0
 72
    1
 10
143.7375642690758
 20
17.94340056833526
 11
145.8851762091633
 21
15.62224504687756
 72
    1
 10
145.8851762091633
 20
15.62224504687756
 11
145.559779969968
 21
18.76773662809622
 97
    0
 75
    0
 76
    1
 98
    0
  0
HATCH
  5
72
100
AcDbEntity
  8
0
  6
ByLayer
 62
    7
370
   20
100
AcDbHatch
 10
0
 20
0
 30
0
210
0
220
0
230
1
  2
SOLID
 70
    1
 71
    0
 91
    1
 92
    0
 93
    1
 72
    2
 10
144
 20
13
 40
2
 50
0
 51
360
 73
    1
 97
    0
 75
    0
 76
    1
 98
    0
  0
HATCH
  5
73
100
AcDbEntity
  8
0
  6
ByLayer
 62
    7
370
   20
100
AcDbHatch
 10
0
 20
0
 30
0
210
0
220
0
230
1
  2
SOLID
 70
    1
 71
    0
 91
    1
 92
    0
 93
    3
 72
    2
 10
145.3395460971115
 20
10.0388994860503
 40
1.25
 50
12.52879764584403
 51
118.789002354156
 73
    0
 72
    1
 10
144.7375642690758
 20
8.943400568335264
 11
146.8851762091633
 21
6.622245046877559
 72
    1
 10
146.8851762091633
 20
6.622245046877559
 11
146.559779969968
 21
9.767736628096216
 97
    0
 75
    0
 76
    1
 98
    0
  0
HATCH
  5
74
100
AcDbEntity
  8
0
  6
ByLayer
 62
    7
370
   20
100
AcDbHatch
 10
0
 20
0
 30
0
210
0
220
0
230
1
  2
SOLID
 70
    1
 71
    0
 91
    1
 92
    0
 93
    1
 72
    2
 10
150
 20
19
 40
2
 50
0
 51
360
 73
    1
 97
    0
 75
    0
 76
    1
 98
    0
  0
HATCH
  5
75
100
AcDbEntity
  8
0
  6
ByLayer
 62
    7
370
   20
100
AcDbHatch
 10
0
 20
0
 30
0
210
0
220
0
230
1
  2
SOLID
 70
    1
 71
    0
 91
    1
 92
    0
 93
    3
 72
    2
 10
151.3395460971115
 20
16.0388994860503
 40
1.25
 50
12.52879764584403
 51
118.789002354156
 73
    0
 72
    1
 10
150.7375642690758
 20
14.94340056833526
 11
152.8851762091633
 21
12.62224504687756
 72
    1
 10
152.8851762091633
 20
12.62224504687756
 11
152.559779969968
 21
15.76773662809622
 97
    0
 75
    0
 76
    1
 98
    0
  0
HATCH
  5
76
100
AcDbEntity
  8
0
  6
ByLayer
 62
    7
370
   20
100
AcDbHatch
 10
0
 20
0
 30
0
210
0
220
0
230
1
  2
SOLID
 70
    1
 71
    0
 91
    1
 92
    0
 93
    1
 72
    2
 10
158
 20
12
 40
2
 50
0
 51
360
 73
    1
 97
    0
 75
    0
 76
    1
 98
    0
  0
HATCH
  5
77
100
AcDbEntity
  8
0
  6
ByLayer
 62
    7
370
   20
100
AcDbHatch
 10
0
 20
0
 30
0
210
0
220
0
230
1
  2
SOLID
 70
    1
 71
    0
 91
    1
 92
    0
 93
    3
 72
    2
 10
159.3395460971115
 20
9.038899486050298
 40
1.25
 50
12.52879764584403
 51
118.789002354156
 73
    0
 72
    1
 10
158.7375642690758
 20
7.943400568335264
 11
160.8851762091633
 21
5.622245046877559
 72
    1
 10
160.8851762091633
 20
5.622245046877559
 11
160.559779969968
 21
8.767736628096216
 97
    0
 75
    0
 76
    1
 98
    0
  0
HATCH
  5
78
100
AcDbEntity
  8
0
  6
ByLayer
 62
    7
370
   20
100
AcDbHatch
 10
0
 20
0
 30
0
210
0
220
0
230
1
  2
SOLID
 70
    1
 71
    0
 91
    1
 92
    0
 93
    1
 72
    2
 10
157
 20
22
 40
2
 50
0
 51
360
 73
    1
 97
    0
 75
    0
 76
    1
 98
    0
  0
HATCH
  5
79
100
AcDbEntity
  8
0
  6
ByLayer
 62
    7
370
   20
100
AcDbHatch
 10
0
 20
0
 30
0
210
0
220
0
230
1
  2
SOLID
 70
    1
 71
    0
 91
    1
 92
    0
 93
    3
 72
    2
 10
158.3395460971115
 20
19.0388994860503
 40
1.25
 50
12.52879764584403
 51
118.789002354156
 73
    0
 72
    1
 10
157.7375642690758
 20
17.94340056833526
 11
159.8851762091633
 21
15.62224504687756
 72
    1
 10
159.8851762091633
 20
15.62224504687756
 11
159.559779969968
 21
18.76773662809622
 97
    0
 75
    0
 76
    1
 98
    0
  0
HATCH
  5
7A
100
AcDbEntity
  8
0
  6
ByLayer
 62
   51
370
   20
100
AcDbHatch
 10
0
 20
0
 30
0
210
0
220
0
230
1
  2
SOLID
 70
    1
 71
    0
 91
    1
 92
    0
 93
    4
 72
    1
 10
295
 20
100
 11
295
 21
0
 72
    1
 10
295
 20
0
 11
300
 21
0
 72
    1
 10
300
 20
0
 11
300
 21
100
 72
    1
 10
300
 20
100
 11
295
 21
100
 97
    0
 75
    0
 76
    1
 98
    0
  0
HATCH
  5
7B
100
AcDbEntity
  8
0
  6
ByLayer
 62
  161
420
5614335
370
   20
100
AcDbHatch
 10
0
 20
0
 30
0
210
0
220
0
230
1
  2
SOLID
 70
    1
 71
    0
 91
    1
 92
    0
 93
    4
 72
    1
 10
320
 20
100
 11
320
 21
0
 72
    1
 10
320
 20
0
 11
325
 21
0
 72
    1
 10
325
 20
0
 11
325
 21
100
 72
    1
 10
325
 20
100
 11
320
 21
100
 97
    0
 75
    0
 76
    1
 98
    0
  0
HATCH
  5
7C
100
AcDbEntity
  8
0
  6
ByLayer
 62
    1
370
   20
100
AcDbHatch
 10
0
 20
0
 30
0
210
0
220
0
230
1
  2
SOLID
 70
    1
 71
    0
 91
    1
 92
    0
 93
    3
 72
    2
 10
285.0000113446401
 20
-3.74999999998019
 40
1.25
 50
36.86969764584404
 51
143.129902354156
 73
    0
 72
    1
 10
284.0000139626401
 20
-4.500003490634128
 11
285.0000244346095
 21
-7.499999999957353
 72
    1
 10
285.0000244346095
 20
-7.499999999957353
 11
286.0000139626279
 21
-4.499996509317114
 97
    0
 75
    0
 76
    1
 98
    0
  0
HATCH
  5
7D
100
AcDbEntity
  8
0
  6
ByLayer
 62
    1
370
   20
100
AcDbHatch
 10
0
 20
0
 30
0
210
0
220
0
230
1
  2
SOLID
 70
    1
 71
    0
 91
    1
 92
    0
 93
    3
 72
    2
 10
140.0000113446401
 20
-3.749999999980185
 40
1.25
 50
36.86969764584404
 51
143.129902354156
 73
    0
 72
    1
 10
139.0000139626401
 20
-4.50000349063413
 11
140.0000244346095
 21
-7.499999999957355
 72
    1
 10
140.0000244346095
 20
-7.499999999957355
 11
141.0000139626279
 21
-4.499996509317116
 97
    0
 75
    0
 76
    1
 98
    0
  0
HATCH
  5
7E
100
AcDbEntity
  8
0
  6
ByLayer
 62
    7
370
   20
100
AcDbHatch
 10
0
 20
0
 30
0
210
0
220
0
230
1
  2
SOLID
 70
    1
 71
    0
 91
    1
 92
    0
 93
    3
 72
    2
 10
279.2618729427515
 20
10.27754848426
 40
1.25
 50
131.768897645844
 51
238.029102354156
 73
    0
 72
    1
 10
278.6000123862357
 20
11.33794492131953
 11
275.5255724920801
 21
10.59779673532919
 72
    1
 10
275.5255724920801
 20
10.59779673532919
 11
278.4292133189987
 21
9.345251347628102
 97
    0
 75
    0
 76
    1
 98
    0
  0
HATCH
  5
7F
100
AcDbEntity
  8
0
  6
ByLayer
 62
    7
370
   20
100
AcDbHatch
 10
0
 20
0
 30
0
210
0
220
0
230
1
  2
SOLID
 70
    1
 71
    0
 91
    1
 92
    0
 93
    1
 72
    2
 10
282.5
 20
10
 40
2
 50
0
 51
360
 73
    1
 97
    0
 75
    0
 76
    1
 98
    0
  0
HATCH
  5
80
100
AcDbEntity
  8
0
  6
ByLayer
 62
    7
370
   20
100
AcDbHatch
 10
0
 20
0
 30
0
210
0
220
0
230
1
  2
SOLID
 70
    1
 71
    0
 91
    1
 92
    0
 93
    3
 72
    2
 10
279.6665964497325
 20
19.67197335303797
 40
1.25
 50
121.0770976458439
 51
227.337302354156
 73
    0
 72
    1
 10
278.8194951236824
 20
20.59116829612904
 11
275.9357461994238
 21
19.29348106808174
 72
    1
 10
275.9357461994238
 20
19.29348106808174
 11
279.021357675659
 21
18.60138149596436
 97
    0
 75
    0
 76
    1
 98
    0
  0
HATCH
  5
81
100
AcDbEntity
  8
0
  6
ByLayer
 62
    7
370
   20
100
AcDbHatch
 10
0
 20
0
 30
0
210
0
220
0
230
1
  2
SOLID
 70
    1
 71
    0
 91
    1
 92
    0
 93
    1
 72
    2
 10
282.9
 20
20
 40
2
 50
0
 51
360
 73
    1
 97
    0
 75
    0
 76
    1
 98
    0
  0
HATCH
  5
82
100
AcDbEntity
  8
0
  6
ByLayer
 62
    7
370
   20
100
AcDbHatch
 10
0
 20
0
 30
0
210
0
220
0
230
1
  2
SOLID
 70
    1
 71
    0
 91
    1
 92
    0
 93
    3
 72
    2
 10
278.7633470845893
 20
29.70575876365951
 40
1.25
 50
121.675467645844
 51
227.935672354156
 73
    0
 72
    1
 10
277.9258914160051
 20
30.63375014463037
 11
275.0287475668076
 21
29.36624964480505
 72
    1
 10
275.0287475668076
 20
29.36624964480505
 11
278.1069629460608
 21
28.64196373514681
 97
    0
 75
    0
 76
    1
 98
    0
  0
HATCH
  5
83
100
AcDbEntity
  8
0
  6
ByLayer
 62
    7
370
   20
100
AcDbHatch
 10
0
 20
0
 30
0
210
0
220
0
230
1
  2
SOLID
 70
    1
 71
    0
 91
    1
 92
    0
 93
    1
 72
    2
 10
282
 20
30
 40
2
 50
0
 51
360
 73
    1
 97
    0
 75
    0
 76
    1
 98
    0
  0
HATCH
  5
84
100
AcDbEntity
  8
0
  6
ByLayer
 62
    7
370
   20
100
AcDbHatch
 10
0
 20
0
 30
0
210
0
220
0
230
1
  2
SOLID
 70
    1
 71
    0
 91
    1
 92
    0
 93
    3
 72
    2
 10
279.258260774353
 20
40.23157459468052
 40
1.25
 50
130.955897645844
 51
237.216102354156
 73
    0
 72
    1
 10
278.5814208283361
 20
41.28247310903663
 11
275.517792437068
 21
40.49877605008108
 72
    1
 10
275.517792437068
 20
40.49877605008108
 11
278.4389133854558
 21
39.28755666248459
 97
    0
 75
    0
 76
    1
 98
    0
  0
HATCH
  5
85
100
AcDbEntity
  8
0
  6
ByLayer
 62
    7
370
   20
100
AcDbHatch
 10
0
 20
0
 30
0
210
0
220
0
230
1
  2
SOLID
 70
    1
 71
    0
 91
    1
 92
    0
 93
    1
 72
    2
 10
282.5
 20
40
 40
2
 50
0
 51
360
 73
    1
 97
    0
 75
    0
 76
    1
 98
    0
  0
HATCH
  5
86
100
AcDbEntity
  8
0
  6
ByLayer
 62
    7
370
   20
100
AcDbHatch
 10
0
 20
0
 30
0
210
0
220
0
230
1
  2
SOLID
 70
    1
 71
    0
 91
    1
 92
    0
 93
    3
 72
    2
 10
279.7625757386592
 20
50.28562939638923
 40
1.25
 50
131.911897645844
 51
238.172102354156
 73
    0
 72
    1
 10
279.1033638003156
 20
51.34767441443006
 11
276.0270862063428
 21
50.61520177683829
 72
    1
 10
276.0270862063428
 20
50.61520177683829
 11
278.9275918640761
 21
49.35541333052797
 97
    0
 75
    0
 76
    1
 98
    0
  0
HATCH
  5
87
100
AcDbEntity
  8
0
  6
ByLayer
 62
    7
370
   20
100
AcDbHatch
 10
0
 20
0
 30
0
210
0
220
0
230
1
  2
SOLID
 70
    1
 71
    0
 91
    1
 92
    0
 93
    1
 72
    2
 10
283
 20
50.00000000000001
 40
2
 50
0
 51
360
 73
    1
 97
    0
 75
    0
 76
    1
 98
    0
  0
HATCH
  5
88
100
AcDbEntity
  8
0
  6
ByLayer
 62
    7
370
   20
100
AcDbHatch
 10
0
 20
0
 30
0
210
0
220
0
230
1
  2
SOLID
 70
    1
 71
    0
 91
    1
 92
    0
 93
    3
 72
    2
 10
278.7994536329524
 20
59.43519653650264
 40
1.25
 50
116.8618976458439
 51
223.122102354156
 73
    0
 72
    1
 10
277.8870803287115
 20
60.28964077324864
 11
275.1065155171283
 21
58.7835002324672
 72
    1
 10
275.1065155171283
 20
58.7835002324672
 11
278.2346516908638
 21
58.32007377814242
 97
    0
 75
    0
 76
    1
 98
    0
  0
HATCH
  5
89
100
AcDbEntity
  8
0
  6
ByLayer
 62
    7
370
   20
100
AcDbHatch
 10
0
 20
0
 30
0
210
0
220
0
230
1
  2
SOLID
 70
    1
 71
    0
 91
    1
 92
    0
 93
    1
 72
    2
 10
282
 20
60
 40
2
 50
0
 51
360
 73
    1
 97
    0
 75
    0
 76
    1
 98
    0
  0
HATCH
  5
8A
100
AcDbEntity
  8
0
  6
ByLayer
 62
    7
370
   20
100
AcDbHatch
 10
0
 20
0
 30
0
210
0
220
0
230
1
  2
SOLID
 70
    1
 71
    0
 91
    1
 92
    0
 93
    3
 72
    2
 10
279.0905291985538
 20
90.51166119128237
 40
1.25
 50
135.9278976458439
 51
242.188102354156
 73
    0
 72
    1
 10
278.5073163032301
 20
91.61726632817711
 11
275.3872936584236
 21
91.10203948891585
 72
    1
 10
275.3872936584236
 20
91.10203948891585
 11
278.1924478778255
 21
89.64220737344098
 97
    0
 75
    0
 76
    1
 98
    0
  0
HATCH
  5
8B
100
AcDbEntity
  8
0
  6
ByLayer
 62
    7
370
   20
100
AcDbHatch
 10
0
 20
0
 30
0
210
0
220
0
230
1
  2
SOLID
 70
    1
 71
    0
 91
    1
 92
    0
 93
    1
 72
    2
 10
282.3
 20
90
 40
2
 50
0
 51
360
 73
    1
 97
    0
 75
    0
 76
    1
 98
    0
  0
HATCH
  5
8C
100
AcDbEntity
  8
0
  6
ByLayer
 62
    7
370
   20
100
AcDbHatch
 10
0
 20
0
 30
0
210
0
220
0
230
1
  2
SOLID
 70
    1
 71
    0
 91
    1
 92
    0
 93
    3
 72
    2
 10
279.2905291985538
 20
70.51166119128239
 40
1.25
 50
135.9278976458439
 51
242.188102354156
 73
    0
 72
    1
 10
278.70731630323
 20
71.61726632817712
 11
275.5872936584236
 21
71.10203948891586
 72
    1
 10
275.5872936584236
 20
71.10203948891586
 11
278.3924478778255
 21
69.642207373441
 97
    0
 75
    0
 76
    1
 98
    0
  0
HATCH
  5
8D
100
AcDbEntity
  8
0
  6
ByLayer
 62
    7
370
   20
100
AcDbHatch
 10
0
 20
0
 30
0
210
0
220
0
230
1
  2
SOLID
 70
    1
 71
    0
 91
    1
 92
    0
 93
    1
 72
    2
 10
282.4999999999999
 20
70.00000000000001
 40
2
 50
0
 51
360
 73
    1
 97
    0
 75
    0
 76
    1
 98
    0
  0
HATCH
  5
8E
100
AcDbEntity
  8
0
  6
ByLayer
 62
    7
370
   20
100
AcDbHatch
 10
0
 20
0
 30
0
210
0
220
0
230
1
  2
SOLID
 70
    1
 71
    0
 91
    1
 92
    0
 93
    3
 72
    2
 10
195.0000130899694
 20
91.25000000002282
 40
1.25
 50
216.869697645844
 51
323.129902354156
 73
    0
 72
    1
 10
196.0000104719694
 20
92.00000349067678
 11
195
 21
95
 72
    1
 10
195
 20
95
 11
194.0000104719816
 21
91.99999650935976
 97
    0
 75
    0
 76
    1
 98
    0
  0
HATCH
  5
8F
100
AcDbEntity
  8
0
  6
ByLayer
 62
    7
370
   20
100
AcDbHatch
 10
0
 20
0
 30
0
210
0
220
0
230
1
  2
SOLID
 70
    1
 71
    0
 91
    1
 92
    0
 93
    3
 72
    2
 10
194.9999869100305
 20
8.74999999997717
 40
1.25
 50
36.86969764584404
 51
143.129902354156
 73
    0
 72
    1
 10
193.9999895280305
 20
7.999996509323225
 11
195
 21
5
 72
    1
 10
195
 20
5
 11
195.9999895280183
 21
8.000003490640239
 97
    0
 75
    0
 76
    1
 98
    0
  0
HATCH
  5
90
100
AcDbEntity
  8
0
  6
ByLayer
 62
    7
370
   20
100
AcDbHatch
 10
0
 20
0
 30
0
210
0
220
0
230
1
  2
SOLID
 70
    1
 71
    0
 91
    1
 92
    0
 93
    1
 72
    2
 10
282.6
 20
80.00000000000001
 40
2
 50
0
 51
360
 73
    1
 97
    0
 75
    0
 76
    1
 98
    0
  0
HATCH
  5
91
100
AcDbEntity
  8
0
  6
ByLayer
 62
    7
370
   20
100
AcDbHatch
 10
0
 20
0
 30
0
210
0
220
0
230
1
  2
SOLID
 70
    1
 71
    0
 91
    1
 92
    0
 93
    3
 72
    2
 10
279.35
 20
80.00000000000004
 40
1.25
 50
126.869897645844
 51
233.130102354156
 73
    0
 72
    1
 10
278.6
 20
81.00000000000003
 11
275.6
 21
80.00000000000003
 72
    1
 10
275.6
 20
80.00000000000003
 11
278.6
 21
79
 97
    0
 75
    0
 76
    1
 98
    0
  0
HATCH
  5
92
100
AcDbEntity
  8
0
  6
ByLayer
 62
    7
370
   20
100
AcDbHatch
 10
0
 20
0
 30
0
210
0
220
0
230
1
  2
SOLID
 70
    1
 71
    0
 91
    1
 92
    0
 93
    3
 72
    2
 10
328.75
 20
50.00000000000001
 40
1.25
 50
126.869897645844
 51
233.130102354156
 73
    0
 72
    1
 10
328
 20
51
 11
325
 21
50
 72
    1
 10
325
 20
50
 11
328
 21
48.99999999999997
 97
    0
 75
    0
 76
    1
 98
    0
  0
HATCH
  5
93
100
AcDbEntity
  8
0
  6
ByLayer
 62
   51
370
   20
100
AcDbHatch
 10
0
 20
0
 30
0
210
0
220
0
230
1
  2
SOLID
 70
    1
 71
    0
 91
    1
 92
    0
 93
    4
 72
    1
 10
345
 20
100
 11
345
 21
0
 72
    1
 10
345
 20
0
 11
350
 21
0
 72
    1
 10
350
 20
0
 11
350
 21
100
 72
    1
 10
350
 20
100
 11
345
 21
100
 97
    0
 75
    0
 76
    1
 98
    0
  0
HATCH
  5
94
100
AcDbEntity
  8
0
  6
ByLayer
 62
    7
370
   20
100
AcDbHatch
 10
0
 20
0
 30
0
210
0
220
0
230
1
  2
SOLID
 70
    1
 71
    0
 91
    1
 92
    0
 93
    3
 72
    2
 10
341.25
 20
49.99999999999999
 40
1.25
 50
306.869897645844
 51
53.13010235415599
 73
    0
 72
    1
 10
342
 20
49
 11
345
 21
50
 72
    1
 10
345
 20
50
 11
342
 21
51.00000000000003
 97
    0
 75
    0
 76
    1
 98
    0
  0
HATCH
  5
95
100
AcDbEntity
  8
0
  6
ByLayer
 62
    7
370
   20
100
AcDbHatch
 10
0
 20
0
 30
0
210
0
220
0
230
1
  2
SOLID
 70
    1
 71
    0
 91
    1
 92
    0
 93
    3
 72
    2
 10
205.0000130899694
 20
96.25000000002282
 40
1.25
 50
216.869697645844
 51
323.129902354156
 73
    0
 72
    1
 10
206.0000104719694
 20
97.00000349067678
 11
205
 21
100
 72
    1
 10
205
 20
100
 11
204.0000104719816
 21
96.99999650935976
 97
    0
 75
    0
 76
    1
 98
    0
  0
HATCH
  5
96
100
AcDbEntity
  8
0
  6
ByLayer
 62
    7
370
   20
100
AcDbHatch
 10
0
 20
0
 30
0
210
0
220
0
230
1
  2
SOLID
 70
    1
 71
    0
 91
    1
 92
    0
 93
    3
 72
    2
 10
204.9999869100306
 20
3.74999999997717
 40
1.25
 50
36.86969764584404
 51
143.129902354156
 73
    0
 72
    1
 10
203.9999895280306
 20
2.999996509323225
 11
205
 21
0
 72
    1
 10
205
 20
0
 11
205.9999895280184
 21
3.000003490640239
 97
    0
 75
    0
 76
    1
 98
    0
  0
HATCH
  5
97
100
AcDbEntity
  8
0
  6
ByLayer
 62
    7
370
   20
100
AcDbHatch
 10
0
 20
0
 30
0
210
0
220
0
230
1
  2
SOLID
 70
    1
 71
    0
 91
    1
 92
    0
 93
    3
 72
    2
 10
255.0000130899694
 20
96.25000000002282
 40
1.25
 50
216.869697645844
 51
323.129902354156
 73
    0
 72
    1
 10
256.0000104719694
 20
97.00000349067678
 11
255
 21
100
 72
    1
 10
255
 20
100
 11
254.0000104719816
 21
96.99999650935976
 97
    0
 75
    0
 76
    1
 98
    0
  0
HATCH
  5
98
100
AcDbEntity
  8
0
  6
ByLayer
 62
    7
370
   20
100
AcDbHatch
 10
0
 20
0
 30
0
210
0
220
0
230
1
  2
SOLID
 70
    1
 71
    0
 91
    1
 92
    0
 93
    3
 72
    2
 10
254.9999869100306
 20
3.749999999977177
 40
1.25
 50
36.86969764584404
 51
143.129902354156
 73
    0
 72
    1
 10
253.9999895280306
 20
2.999996509323225
 11
255
 21
0
 72
    1
 10
255
 20
0
 11
255.9999895280184
 21
3.000003490640239
 97
    0
 75
    0
 76
    1
 98
    0
  0
MTEXT
  5
99
100
AcDbEntity
  8
0
  6
ByLayer
 62
    1
370
   40
100
AcDbMText
 10
140
 20
110
 30
0
 40
5
 41
14.52381111111111
 71
    5
 72
    1
  1
MIP
  7
romant
210
0
220
0
230
1
 50
0
 73
    2
 44
1
  0
MTEXT
  5
9A
100
AcDbEntity
  8
0
  6
ByLayer
 62
    1
370
   40
100
AcDbMText
 10
285
 20
110
 30
0
 40
5
 41
14.52381111111111
 71
    5
 72
    1
  1
MIP
  7
romant
210
0
220
0
230
1
 50
0
 73
    2
 44
1
  0
LINE
  5
9B
100
AcDbEntity
  8
0
  6
ByLayer
 62
  256
370
   20
100
AcDbLine
 10
100
 20
0
 11
200
 21
0
  0
LINE
  5
9C
100
AcDbEntity
  8
0
  6
ByLayer
 62
  256
370
   20
100
AcDbLine
 10
110
 20
100
 11
110
 21
95
  0
LINE
  5
9D
100
AcDbEntity
  8
0
  6
ByLayer
 62
  256
370
   20
100
AcDbLine
 10
110
 20
95
 11
130
 21
95
  0
LINE
  5
9E
100
AcDbEntity
  8
0
  6
ByLayer
 62
  256
370
   20
100
AcDbLine
 10
130
 20
95
 11
130
 21
100
  0
LINE
  5
9F
100
AcDbEntity
  8
0
  6
ByLayer
 62
  256
370
   20
100
AcDbLine
 10
150
 20
100
 11
150
 21
95
  0
LINE
  5
A0
100
AcDbEntity
  8
0
  6
ByLayer
 62
  256
370
   20
100
AcDbLine
 10
150
 20
95
 11
170
 21
95
  0
LINE
  5
A1
100
AcDbEntity
  8
0
  6
ByLayer
 62
  256
370
   20
100
AcDbLine
 10
170
 20
95
 11
170
 21
100
  0
LINE
  5
A2
100
AcDbEntity
  8
0
  6
ByLayer
 62
  256
370
   20
100
AcDbLine
 10
190
 20
100
 11
190
 21
95
  0
LINE
  5
A3
100
AcDbEntity
  8
0
  6
ByLayer
 62
  256
370
   20
100
AcDbLine
 10
190
 20
95
 11
200
 21
95
  0
LINE
  5
A4
100
AcDbEntity
  8
0
  6
ByLayer
 62
  256
370
   20
100
AcDbLine
 10
100
 20
5
 11
200
 21
5
  0
LINE
  5
A5
100
AcDbEntity
  8
0
  6
ByLayer
 62
  256
370
   20
100
AcDbLine
 10
220
 20
100
 11
240
 21
100
  0
LINE
  5
A6
100
AcDbEntity
  8
0
  6
ByLayer
 62
  256
370
   20
100
AcDbLine
 10
240
 20
100
 11
240
 21
95
  0
LINE
  5
A7
100
AcDbEntity
  8
0
  6
ByLayer
 62
  256
370
   20
100
AcDbLine
 10
240
 20
95
 11
220
 21
95
  0
LINE
  5
A8
100
AcDbEntity
  8
0
  6
ByLayer
 62
  256
370
   20
100
AcDbLine
 10
220
 20
95
 11
220
 21
100
  0
LINE
  5
A9
100
AcDbEntity
  8
0
  6
ByLayer
 62
  256
370
   20
100
AcDbLine
 10
220
 20
0
 11
220
 21
5
  0
LINE
  5
AA
100
AcDbEntity
  8
0
  6
ByLayer
 62
  256
370
   20
100
AcDbLine
 10
220
 20
5
 11
240
 21
5
  0
LINE
  5
AB
100
AcDbEntity
  8
0
  6
ByLayer
 62
  256
370
   20
100
AcDbLine
 10
240
 20
5
 11
240
 21
0
  0
LINE
  5
AC
100
AcDbEntity
  8
0
  6
ByLayer
 62
  256
370
   20
100
AcDbLine
 10
240
 20
0
 11
220
 21
0
  0
LINE
  5
AD
100
AcDbEntity
  8
0
  6
ByLayer
 62
  256
370
   20
100
AcDbLine
 10
260
 20
100
 11
260
 21
0
  0
LINE
  5
AE
100
AcDbEntity
  8
0
  6
ByLayer
 62
  256
370
   20
100
AcDbLine
 10
360
 20
0
 11
360
 21
100
  0
LINE
  5
AF
100
AcDbEntity
  8
0
  6
ByLayer
 62
  256
370
   20
100
AcDbLine
 10
270
 20
100
 11
270
 21
0
  0
LINE
  5
B0
100
AcDbEntity
  8
0
  6
ByLayer
 62
  256
370
   20
100
AcDbLine
 10
275
 20
100
 11
275
 21
0
  0
LINE
  5
B1
100
AcDbEntity
  8
0
  6
ByLayer
 62
  256
370
   20
100
AcDbLine
 10
270
 20
100
 11
275
 21
100
  0
LINE
  5
B2
100
AcDbEntity
  8
0
  6
ByLayer
 62
  256
370
   20
100
AcDbLine
 10
275
 20
0
 11
270
 21
0
  0
LINE
  5
B3
100
AcDbEntity
  8
0
  6
ByLayer
 62
  256
370
   20
100
AcDbLine
 10
300
 20
100
 11
305
 21
100
  0
LINE
  5
B4
100
AcDbEntity
  8
0
  6
ByLayer
 62
  256
370
   20
100
AcDbLine
 10
305
 20
0
 11
300
 21
0
  0
LINE
  5
B5
100
AcDbEntity
  8
0
  6
ByLayer
 62
  256
370
   20
100
AcDbLine
 10
330
 20
100
 11
335
 21
100
  0
LINE
  5
B6
100
AcDbEntity
  8
0
  6
ByLayer
 62
  256
370
   20
100
AcDbLine
 10
335
 20
0
 11
330
 21
0
  0
LINE
  5
B7
100
AcDbEntity
  8
0
  6
ByLayer
 62
  256
370
   20
100
AcDbLine
 10
100
 20
5
 11
100
 21
0
  0
LINE
  5
B8
100
AcDbEntity
  8
0
  6
ByLayer
 62
  256
370
   20
100
AcDbLine
 10
200
 20
5
 11
200
 21
0
  0
LINE
  5
B9
100
AcDbEntity
  8
0
  6
ByLayer
 62
  256
370
   20
100
AcDbLine
 10
110
 20
100
 11
130
 21
100
  0
LINE
  5
BA
100
AcDbEntity
  8
0
  6
ByLayer
 62
  256
370
   20
100
AcDbLine
 10
150
 20
100
 11
170
 21
100
  0
LINE
  5
BB
100
AcDbEntity
  8
0
  6
ByLayer
 62
  256
370
   20
100
AcDbLine
 10
190
 20
100
 11
200
 21
100
  0
LINE
  5
BC
100
AcDbEntity
  8
0
  6
ByLayer
 62
  256
370
   20
100
AcDbLine
 10
200
 20
100
 11
200
 21
95
  0
LINE
  5
BD
100
AcDbEntity
  8
0
  6
ByLayer
 62
  256
370
   20
100
AcDbLine
 10
100
 20
0
 11
100
 21
100
  0
LINE
  5
BE
100
AcDbEntity
  8
0
  6
ByLayer
 62
  256
370
   20
100
AcDbLine
 10
100
 20
100
 11
200
 21
100
  0
LINE
  5
BF
100
AcDbEntity
  8
0
  6
ByLayer
 62
  256
370
   20
100
AcDbLine
 10
200
 20
100
 11
200
 21
0
  0
LINE
  5
C0
100
AcDbEntity
  8
0
  6
ByLayer
 62
  256
370
   20
100
AcDbLine
 10
260
 20
100
 11
360
 21
100
  0
LINE
  5
C1
100
AcDbEntity
  8
0
  6
ByLayer
 62
  256
370
   20
100
AcDbLine
 10
360
 20
0
 11
260
 21
0
  0
CIRCLE
  5
C2
100
AcDbEntity
  8
0
  6
ByLayer
 62
  256
370
   20
100
AcDbCircle
 10
130
 20
74
 40
2
  0
ARC
  5
C3
100
AcDbEntity
  8
0
  6
ByLayer
 62
    7
370
   20
100
AcDbCircle
 10
129.0442062973881
 20
77.10627725711137
 40
1.25
100
AcDbArc
 50
53.97289764584403
 51
160.233102354156
  0
LINE
  5
C4
100
AcDbEntity
  8
0
  6
ByLayer
 62
    7
370
   20
100
AcDbLine
 10
127.8678609022895
 20
77.52902010025647
 11
127.9413674097589
 21
80.69044332300911
  0
LINE
  5
C5
100
AcDbEntity
  8
0
  6
ByLayer
 62
    7
370
   20
100
AcDbLine
 10
127.9413674097589
 20
80.69044332300911
 11
129.779416137435
 21
78.11720084032537
  0
LINE
  5
C6
100
AcDbEntity
  8
0
  6
ByLayer
 62
    7
370
   20
100
AcDbLine
 10
129.4118192599311
 20
75.91155523514546
 11
128.676593334845
 21
78.30099927907729
  0
CIRCLE
  5
C7
100
AcDbEntity
  8
0
  6
ByLayer
 62
  256
370
   20
100
AcDbCircle
 10
124
 20
83
 40
2
  0
ARC
  5
C8
100
AcDbEntity
  8
0
  6
ByLayer
 62
    7
370
   20
100
AcDbCircle
 10
123.0442062973881
 20
86.10627725711137
 40
1.25
100
AcDbArc
 50
53.97289764584403
 51
160.233102354156
  0
LINE
  5
C9
100
AcDbEntity
  8
0
  6
ByLayer
 62
    7
370
   20
100
AcDbLine
 10
121.8678609022895
 20
86.52902010025647
 11
121.9413674097589
 21
89.69044332300911
  0
LINE
  5
CA
100
AcDbEntity
  8
0
  6
ByLayer
 62
    7
370
   20
100
AcDbLine
 10
121.9413674097589
 20
89.69044332300911
 11
123.779416137435
 21
87.11720084032537
  0
LINE
  5
CB
100
AcDbEntity
  8
0
  6
ByLayer
 62
    7
370
   20
100
AcDbLine
 10
123.4118192599311
 20
84.91155523514546
 11
122.676593334845
 21
87.30099927907729
  0
CIRCLE
  5
CC
100
AcDbEntity
  8
0
  6
ByLayer
 62
  256
370
   20
100
AcDbCircle
 10
130
 20
60
 40
2
  0
ARC
  5
CD
100
AcDbEntity
  8
0
  6
ByLayer
 62
    7
370
   20
100
AcDbCircle
 10
129.0442062973881
 20
63.10627725711137
 40
1.25
100
AcDbArc
 50
53.97289764584403
 51
160.233102354156
  0
LINE
  5
CE
100
AcDbEntity
  8
0
  6
ByLayer
 62
    7
370
   20
100
AcDbLine
 10
127.8678609022895
 20
63.52902010025647
 11
127.9413674097589
 21
66.69044332300911
  0
LINE
  5
CF
100
AcDbEntity
  8
0
  6
ByLayer
 62
    7
370
   20
100
AcDbLine
 10
127.9413674097589
 20
66.69044332300911
 11
129.779416137435
 21
64.11720084032537
  0
LINE
  5
D0
100
AcDbEntity
  8
0
  6
ByLayer
 62
    7
370
   20
100
AcDbLine
 10
129.4118192599311
 20
61.91155523514546
 11
128.676593334845
 21
64.30099927907729
  0
CIRCLE
  5
D1
100
AcDbEntity
  8
0
  6
ByLayer
 62
  256
370
   20
100
AcDbCircle
 10
136
 20
67
 40
2
  0
ARC
  5
D2
100
AcDbEntity
  8
0
  6
ByLayer
 62
    7
370
   20
100
AcDbCircle
 10
135.0442062973881
 20
70.10627725711137
 40
1.25
100
AcDbArc
 50
53.97289764584403
 51
160.233102354156
  0
LINE
  5
D3
100
AcDbEntity
  8
0
  6
ByLayer
 62
    7
370
   20
100
AcDbLine
 10
133.8678609022895
 20
70.52902010025647
 11
133.9413674097589
 21
73.69044332300911
  0
LINE
  5
D4
100
AcDbEntity
  8
0
  6
ByLayer
 62
    7
370
   20
100
AcDbLine
 10
133.9413674097589
 20
73.69044332300911
 11
135.779416137435
 21
71.11720084032537
  0
LINE
  5
D5
100
AcDbEntity
  8
0
  6
ByLayer
 62
    7
370
   20
100
AcDbLine
 10
135.4118192599311
 20
68.91155523514546
 11
134.676593334845
 21
71.30099927907729
  0
CIRCLE
  5
D6
100
AcDbEntity
  8
0
  6
ByLayer
 62
  256
370
   20
100
AcDbCircle
 10
136
 20
40
 40
2
  0
ARC
  5
D7
100
AcDbEntity
  8
0
  6
ByLayer
 62
    7
370
   20
100
AcDbCircle
 10
135.0442062973881
 20
43.10627725711137
 40
1.25
100
AcDbArc
 50
53.97289764584403
 51
160.233102354156
  0
LINE
  5
D8
100
AcDbEntity
  8
0
  6
ByLayer
 62
    7
370
   20
100
AcDbLine
 10
133.8678609022895
 20
43.52902010025647
 11
133.9413674097589
 21
46.69044332300911
  0
LINE
  5
D9
100
AcDbEntity
  8
0
  6
ByLayer
 62
    7
370
   20
100
AcDbLine
 10
133.9413674097589
 20
46.69044332300911
 11
135.779416137435
 21
44.11720084032537
  0
LINE
  5
DA
100
AcDbEntity
  8
0
  6
ByLayer
 62
    7
370
   20
100
AcDbLine
 10
135.4118192599311
 20
41.91155523514546
 11
134.676593334845
 21
44.30099927907729
  0
CIRCLE
  5
DB
100
AcDbEntity
  8
0
  6
ByLayer
 62
  256
370
   20
100
AcDbCircle
 10
145
 20
70
 40
2
  0
ARC
  5
DC
100
AcDbEntity
  8
0
  6
ByLayer
 62
    7
370
   20
100
AcDbCircle
 10
146.15261275355
 20
73.03874708397289
 40
1.25
100
AcDbArc
 50
16.09789764584401
 51
122.358102354156
  0
LINE
  5
DD
100
AcDbEntity
  8
0
  6
ByLayer
 62
    7
370
   20
100
AcDbLine
 10
145.4836012093007
 20
74.09464648905896
 11
147.4825505461078
 21
76.54499371932623
  0
LINE
  5
DE
100
AcDbEntity
  8
0
  6
ByLayer
 62
    7
370
   20
100
AcDbLine
 10
147.4825505461078
 20
76.54499371932623
 11
147.3535994148225
 21
73.38534633302815
  0
LINE
  5
DF
100
AcDbEntity
  8
0
  6
ByLayer
 62
    7
370
   20
100
AcDbLine
 10
145.7093001560308
 20
71.86999820552177
 11
146.5959253510693
 21
74.20749596242402
  0
CIRCLE
  5
E0
100
AcDbEntity
  8
0
  6
ByLayer
 62
  256
370
   20
100
AcDbCircle
 10
150
 20
63
 40
2
  0
ARC
  5
E1
100
AcDbEntity
  8
0
  6
ByLayer
 62
    7
370
   20
100
AcDbCircle
 10
151.15261275355
 20
66.03874708397289
 40
1.25
100
AcDbArc
 50
16.09789764584401
 51
122.358102354156
  0
LINE
  5
E2
100
AcDbEntity
  8
0
  6
ByLayer
 62
    7
370
   20
100
AcDbLine
 10
150.4836012093007
 20
67.09464648905896
 11
152.4825505461078
 21
69.54499371932623
  0
LINE
  5
E3
100
AcDbEntity
  8
0
  6
ByLayer
 62
    7
370
   20
100
AcDbLine
 10
152.4825505461078
 20
69.54499371932623
 11
152.3535994148225
 21
66.38534633302815
  0
LINE
  5
E4
100
AcDbEntity
  8
0
  6
ByLayer
 62
    7
370
   20
100
AcDbLine
 10
150.7093001560308
 20
64.86999820552177
 11
151.5959253510693
 21
67.20749596242402
  0
CIRCLE
  5
E5
100
AcDbEntity
  8
0
  6
ByLayer
 62
  256
370
   20
100
AcDbCircle
 10
144
 20
60
 40
2
  0
ARC
  5
E6
100
AcDbEntity
  8
0
  6
ByLayer
 62
    7
370
   20
100
AcDbCircle
 10
145.15261275355
 20
63.03874708397289
 40
1.25
100
AcDbArc
 50
16.09789764584401
 51
122.358102354156
  0
LINE
  5
E7
100
AcDbEntity
  8
0
  6
ByLayer
 62
    7
370
   20
100
AcDbLine
 10
144.4836012093007
 20
64.09464648905896
 11
146.4825505461078
 21
66.54499371932623
  0
LINE
  5
E8
100
AcDbEntity
  8
0
  6
ByLayer
 62
    7
370
   20
100
AcDbLine
 10
146.4825505461078
 20
66.54499371932623
 11
146.3535994148225
 21
63.38534633302815
  0
LINE
  5
E9
100
AcDbEntity
  8
0
  6
ByLayer
 62
    7
370
   20
100
AcDbLine
 10
144.7093001560308
 20
61.86999820552177
 11
145.5959253510693
 21
64.20749596242402
  0
CIRCLE
  5
EA
100
AcDbEntity
  8
0
  6
ByLayer
 62
  256
370
   20
100
AcDbCircle
 10
144
 20
47
 40
2
  0
ARC
  5
EB
100
AcDbEntity
  8
0
  6
ByLayer
 62
    7
370
   20
100
AcDbCircle
 10
145.15261275355
 20
50.03874708397289
 40
1.25
100
AcDbArc
 50
16.09789764584401
 51
122.358102354156
  0
LINE
  5
EC
100
AcDbEntity
  8
0
  6
ByLayer
 62
    7
370
   20
100
AcDbLine
 10
144.4836012093007
 20
51.09464648905896
 11
146.4825505461078
 21
53.54499371932623
  0
LINE
  5
ED
100
AcDbEntity
  8
0
  6
ByLayer
 62
    7
370
   20
100
AcDbLine
 10
146.4825505461078
 20
53.54499371932623
 11
146.3535994148225
 21
50.38534633302815
  0
LINE
  5
EE
100
AcDbEntity
  8
0
  6
ByLayer
 62
    7
370
   20
100
AcDbLine
 10
144.7093001560308
 20
48.86999820552177
 11
145.5959253510693
 21
51.20749596242402
  0
CIRCLE
  5
EF
100
AcDbEntity
  8
0
  6
ByLayer
 62
  256
370
   20
100
AcDbCircle
 10
136
 20
34
 40
2
  0
ARC
  5
F0
100
AcDbEntity
  8
0
  6
ByLayer
 62
    7
370
   20
100
AcDbCircle
 10
134.9183364803003
 20
30.93528075834819
 40
1.25
100
AcDbArc
 50
197.429897645844
 51
303.690102354156
  0
LINE
  5
F1
100
AcDbEntity
  8
0
  6
ByLayer
 62
    7
370
   20
100
AcDbLine
 10
135.6117123578009
 20
29.89521831190555
 11
133.6702631883391
 21
27.39906624874995
  0
LINE
  5
F2
100
AcDbEntity
  8
0
  6
ByLayer
 62
    7
370
   20
100
AcDbLine
 10
133.6702631883391
 20
27.39906624874995
 11
133.7257312860152
 21
30.56085740095153
  0
LINE
  5
F3
100
AcDbEntity
  8
0
  6
ByLayer
 62
    7
370
   20
100
AcDbLine
 10
135.334360910954
 20
32.11401892821427
 11
134.5023120496465
 21
29.75654258848211
  0
CIRCLE
  5
F4
100
AcDbEntity
  8
0
  6
ByLayer
 62
  256
370
   20
100
AcDbCircle
 10
130
 20
31
 40
2
  0
ARC
  5
F5
100
AcDbEntity
  8
0
  6
ByLayer
 62
    7
370
   20
100
AcDbCircle
 10
128.9183364803003
 20
27.93528075834819
 40
1.25
100
AcDbArc
 50
197.429897645844
 51
303.690102354156
  0
LINE
  5
F6
100
AcDbEntity
  8
0
  6
ByLayer
 62
    7
370
   20
100
AcDbLine
 10
129.6117123578009
 20
26.89521831190555
 11
127.6702631883391
 21
24.39906624874995
  0
LINE
  5
F7
100
AcDbEntity
  8
0
  6
ByLayer
 62
    7
370
   20
100
AcDbLine
 10
127.6702631883391
 20
24.39906624874995
 11
127.7257312860152
 21
27.56085740095153
  0
LINE
  5
F8
100
AcDbEntity
  8
0
  6
ByLayer
 62
    7
370
   20
100
AcDbLine
 10
129.334360910954
 20
29.11401892821427
 11
128.5023120496465
 21
26.75654258848211
  0
CIRCLE
  5
F9
100
AcDbEntity
  8
0
  6
ByLayer
 62
  256
370
   20
100
AcDbCircle
 10
136
 20
23
 40
2
  0
ARC
  5
FA
100
AcDbEntity
  8
0
  6
ByLayer
 62
    7
370
   20
100
AcDbCircle
 10
134.9183364803003
 20
19.93528075834819
 40
1.25
100
AcDbArc
 50
197.429897645844
 51
303.690102354156
  0
LINE
  5
FB
100
AcDbEntity
  8
0
  6
ByLayer
 62
    7
370
   20
100
AcDbLine
 10
135.6117123578009
 20
18.89521831190555
 11
133.6702631883391
 21
16.39906624874995
  0
LINE
  5
FC
100
AcDbEntity
  8
0
  6
ByLayer
 62
    7
370
   20
100
AcDbLine
 10
133.6702631883391
 20
16.39906624874995
 11
133.7257312860152
 21
19.56085740095153
  0
LINE
  5
FD
100
AcDbEntity
  8
0
  6
ByLayer
 62
    7
370
   20
100
AcDbLine
 10
135.334360910954
 20
21.11401892821427
 11
134.5023120496465
 21
18.75654258848211
  0
CIRCLE
  5
FE
100
AcDbEntity
  8
0
  6
ByLayer
 62
  256
370
   20
100
AcDbCircle
 10
129
 20
19
 40
2
  0
ARC
  5
FF
100
AcDbEntity
  8
0
  6
ByLayer
 62
    7
370
   20
100
AcDbCircle
 10
127.9183364803003
 20
15.93528075834819
 40
1.25
100
AcDbArc
 50
197.429897645844
 51
303.690102354156
  0
LINE
  5
100
100
AcDbEntity
  8
0
  6
ByLayer
 62
    7
370
   20
100
AcDbLine
 10
128.6117123578009
 20
14.89521831190555
 11
126.6702631883391
 21
12.39906624874995
  0
LINE
  5
101
100
AcDbEntity
  8
0
  6
ByLayer
 62
    7
370
   20
100
AcDbLine
 10
126.6702631883391
 20
12.39906624874995
 11
126.7257312860152
 21
15.56085740095153
  0
LINE
  5
102
100
AcDbEntity
  8
0
  6
ByLayer
 62
    7
370
   20
100
AcDbLine
 10
128.334360910954
 20
17.11401892821427
 11
127.5023120496465
 21
14.75654258848211
  0
CIRCLE
  5
103
100
AcDbEntity
  8
0
  6
ByLayer
 62
  256
370
   20
100
AcDbCircle
 10
136
 20
13
 40
2
  0
ARC
  5
104
100
AcDbEntity
  8
0
  6
ByLayer
 62
    7
370
   20
100
AcDbCircle
 10
134.9183364803003
 20
9.935280758348192
 40
1.25
100
AcDbArc
 50
197.429897645844
 51
303.690102354156
  0
LINE
  5
105
100
AcDbEntity
  8
0
  6
ByLayer
 62
    7
370
   20
100
AcDbLine
 10
135.6117123578009
 20
8.895218311905552
 11
133.6702631883391
 21
6.399066248749946
  0
LINE
  5
106
100
AcDbEntity
  8
0
  6
ByLayer
 62
    7
370
   20
100
AcDbLine
 10
133.6702631883391
 20
6.399066248749946
 11
133.7257312860152
 21
9.560857400951527
  0
LINE
  5
107
100
AcDbEntity
  8
0
  6
ByLayer
 62
    7
370
   20
100
AcDbLine
 10
135.334360910954
 20
11.11401892821427
 11
134.5023120496465
 21
8.756542588482112
  0
CIRCLE
  5
108
100
AcDbEntity
  8
0
  6
ByLayer
 62
  256
370
   20
100
AcDbCircle
 10
122
 20
14
 40
2
  0
ARC
  5
109
100
AcDbEntity
  8
0
  6
ByLayer
 62
    7
370
   20
100
AcDbCircle
 10
120.9183364803003
 20
10.93528075834819
 40
1.25
100
AcDbArc
 50
197.429897645844
 51
303.690102354156
  0
LINE
  5
10A
100
AcDbEntity
  8
0
  6
ByLayer
 62
    7
370
   20
100
AcDbLine
 10
121.6117123578009
 20
9.895218311905552
 11
119.6702631883391
 21
7.399066248749946
  0
LINE
  5
10B
100
AcDbEntity
  8
0
  6
ByLayer
 62
    7
370
   20
100
AcDbLine
 10
119.6702631883391
 20
7.399066248749946
 11
119.7257312860152
 21
10.56085740095153
  0
LINE
  5
10C
100
AcDbEntity
  8
0
  6
ByLayer
 62
    7
370
   20
100
AcDbLine
 10
121.334360910954
 20
12.11401892821427
 11
120.5023120496465
 21
9.756542588482112
  0
CIRCLE
  5
10D
100
AcDbEntity
  8
0
  6
ByLayer
 62
  256
370
   20
100
AcDbCircle
 10
136
 20
54
 40
2
  0
ARC
  5
10E
100
AcDbEntity
  8
0
  6
ByLayer
 62
    7
370
   20
100
AcDbCircle
 10
134.9183364803003
 20
50.93528075834819
 40
1.25
100
AcDbArc
 50
197.429897645844
 51
303.690102354156
  0
LINE
  5
10F
100
AcDbEntity
  8
0
  6
ByLayer
 62
    7
370
   20
100
AcDbLine
 10
135.6117123578009
 20
49.89521831190555
 11
133.6702631883391
 21
47.39906624874995
  0
LINE
  5
110
100
AcDbEntity
  8
0
  6
ByLayer
 62
    7
370
   20
100
AcDbLine
 10
133.6702631883391
 20
47.39906624874995
 11
133.7257312860152
 21
50.56085740095153
  0
LINE
  5
111
100
AcDbEntity
  8
0
  6
ByLayer
 62
    7
370
   20
100
AcDbLine
 10
135.334360910954
 20
52.11401892821427
 11
134.5023120496465
 21
49.75654258848211
  0
CIRCLE
  5
112
100
AcDbEntity
  8
0
  6
ByLayer
 62
  256
370
   20
100
AcDbCircle
 10
131
 20
42
 40
2
  0
ARC
  5
113
100
AcDbEntity
  8
0
  6
ByLayer
 62
    7
370
   20
100
AcDbCircle
 10
129.9183364803003
 20
38.93528075834819
 40
1.25
100
AcDbArc
 50
197.429897645844
 51
303.690102354156
  0
LINE
  5
114
100
AcDbEntity
  8
0
  6
ByLayer
 62
    7
370
   20
100
AcDbLine
 10
130.6117123578009
 20
37.89521831190555
 11
128.6702631883391
 21
35.39906624874995
  0
LINE
  5
115
100
AcDbEntity
  8
0
  6
ByLayer
 62
    7
370
   20
100
AcDbLine
 10
128.6702631883391
 20
35.39906624874995
 11
128.7257312860152
 21
38.56085740095153
  0
LINE
  5
116
100
AcDbEntity
  8
0
  6
ByLayer
 62
    7
370
   20
100
AcDbLine
 10
130.334360910954
 20
40.11401892821427
 11
129.5023120496465
 21
37.75654258848211
  0
CIRCLE
  5
117
100
AcDbEntity
  8
0
  6
ByLayer
 62
  256
370
   20
100
AcDbCircle
 10
144
 20
40
 40
2
  0
ARC
  5
118
100
AcDbEntity
  8
0
  6
ByLayer
 62
    7
370
   20
100
AcDbCircle
 10
145.3395460971115
 20
37.0388994860503
 40
1.25
100
AcDbArc
 50
241.210997645844
 51
347.471202354156
  0
LINE
  5
119
100
AcDbEntity
  8
0
  6
ByLayer
 62
    7
370
   20
100
AcDbLine
 10
146.559779969968
 20
36.76773662809622
 11
146.8851762091633
 21
33.62224504687756
  0
LINE
  5
11A
100
AcDbEntity
  8
0
  6
ByLayer
 62
    7
370
   20
100
AcDbLine
 10
146.8851762091633
 20
33.62224504687756
 11
144.7375642690758
 21
35.94340056833526
  0
LINE
  5
11B
100
AcDbEntity
  8
0
  6
ByLayer
 62
    7
370
   20
100
AcDbLine
 10
144.824336059761
 20
38.17778429910787
 11
145.8547561344621
 21
35.90001467299271
  0
CIRCLE
  5
11C
100
AcDbEntity
  8
0
  6
ByLayer
 62
  256
370
   20
100
AcDbCircle
 10
143
 20
32
 40
2
  0
ARC
  5
11D
100
AcDbEntity
  8
0
  6
ByLayer
 62
    7
370
   20
100
AcDbCircle
 10
144.3395460971115
 20
29.0388994860503
 40
1.25
100
AcDbArc
 50
241.210997645844
 51
347.471202354156
  0
LINE
  5
11E
100
AcDbEntity
  8
0
  6
ByLayer
 62
    7
370
   20
100
AcDbLine
 10
145.559779969968
 20
28.76773662809622
 11
145.8851762091633
 21
25.62224504687756
  0
LINE
  5
11F
100
AcDbEntity
  8
0
  6
ByLayer
 62
    7
370
   20
100
AcDbLine
 10
145.8851762091633
 20
25.62224504687756
 11
143.7375642690758
 21
27.94340056833526
  0
LINE
  5
120
100
AcDbEntity
  8
0
  6
ByLayer
 62
    7
370
   20
100
AcDbLine
 10
143.824336059761
 20
30.17778429910787
 11
144.8547561344621
 21
27.90001467299271
  0
CIRCLE
  5
121
100
AcDbEntity
  8
0
  6
ByLayer
 62
  256
370
   20
100
AcDbCircle
 10
149
 20
56
 40
2
  0
ARC
  5
122
100
AcDbEntity
  8
0
  6
ByLayer
 62
    7
370
   20
100
AcDbCircle
 10
150.3395460971115
 20
53.0388994860503
 40
1.25
100
AcDbArc
 50
241.210997645844
 51
347.471202354156
  0
LINE
  5
123
100
AcDbEntity
  8
0
  6
ByLayer
 62
    7
370
   20
100
AcDbLine
 10
151.559779969968
 20
52.76773662809622
 11
151.8851762091633
 21
49.62224504687756
  0
LINE
  5
124
100
AcDbEntity
  8
0
  6
ByLayer
 62
    7
370
   20
100
AcDbLine
 10
151.8851762091633
 20
49.62224504687756
 11
149.7375642690758
 21
51.94340056833526
  0
LINE
  5
125
100
AcDbEntity
  8
0
  6
ByLayer
 62
    7
370
   20
100
AcDbLine
 10
149.824336059761
 20
54.17778429910787
 11
150.8547561344621
 21
51.90001467299271
  0
CIRCLE
  5
126
100
AcDbEntity
  8
0
  6
ByLayer
 62
  256
370
   20
100
AcDbCircle
 10
150
 20
43
 40
2
  0
ARC
  5
127
100
AcDbEntity
  8
0
  6
ByLayer
 62
    7
370
   20
100
AcDbCircle
 10
151.3395460971115
 20
40.0388994860503
 40
1.25
100
AcDbArc
 50
241.210997645844
 51
347.471202354156
  0
LINE
  5
128
100
AcDbEntity
  8
0
  6
ByLayer
 62
    7
370
   20
100
AcDbLine
 10
152.559779969968
 20
39.76773662809622
 11
152.8851762091633
 21
36.62224504687756
  0
LINE
  5
129
100
AcDbEntity
  8
0
  6
ByLayer
 62
    7
370
   20
100
AcDbLine
 10
152.8851762091633
 20
36.62224504687756
 11
150.7375642690758
 21
38.94340056833526
  0
LINE
  5
12A
100
AcDbEntity
  8
0
  6
ByLayer
 62
    7
370
   20
100
AcDbLine
 10
150.824336059761
 20
41.17778429910787
 11
151.8547561344621
 21
38.90001467299271
  0
CIRCLE
  5
12B
100
AcDbEntity
  8
0
  6
ByLayer
 62
  256
370
   20
100
AcDbCircle
 10
150
 20
30
 40
2
  0
ARC
  5
12C
100
AcDbEntity
  8
0
  6
ByLayer
 62
    7
370
   20
100
AcDbCircle
 10
151.3395460971115
 20
27.0388994860503
 40
1.25
100
AcDbArc
 50
241.210997645844
 51
347.471202354156
  0
LINE
  5
12D
100
AcDbEntity
  8
0
  6
ByLayer
 62
    7
370
   20
100
AcDbLine
 10
152.559779969968
 20
26.76773662809622
 11
152.8851762091633
 21
23.62224504687756
  0
LINE
  5
12E
100
AcDbEntity
  8
0
  6
ByLayer
 62
    7
370
   20
100
AcDbLine
 10
152.8851762091633
 20
23.62224504687756
 11
150.7375642690758
 21
25.94340056833526
  0
LINE
  5
12F
100
AcDbEntity
  8
0
  6
ByLayer
 62
    7
370
   20
100
AcDbLine
 10
150.824336059761
 20
28.17778429910787
 11
151.8547561344621
 21
25.90001467299271
  0
CIRCLE
  5
130
100
AcDbEntity
  8
0
  6
ByLayer
 62
  256
370
   20
100
AcDbCircle
 10
143
 20
22
 40
2
  0
ARC
  5
131
100
AcDbEntity
  8
0
  6
ByLayer
 62
    7
370
   20
100
AcDbCircle
 10
144.3395460971115
 20
19.0388994860503
 40
1.25
100
AcDbArc
 50
241.210997645844
 51
347.471202354156
  0
LINE
  5
132
100
AcDbEntity
  8
0
  6
ByLayer
 62
    7
370
   20
100
AcDbLine
 10
145.559779969968
 20
18.76773662809622
 11
145.8851762091633
 21
15.62224504687756
  0
LINE
  5
133
100
AcDbEntity
  8
0
  6
ByLayer
 62
    7
370
   20
100
AcDbLine
 10
145.8851762091633
 20
15.62224504687756
 11
143.7375642690758
 21
17.94340056833526
  0
LINE
  5
134
100
AcDbEntity
  8
0
  6
ByLayer
 62
    7
370
   20
100
AcDbLine
 10
143.824336059761
 20
20.17778429910787
 11
144.8547561344621
 21
17.90001467299271
  0
CIRCLE
  5
135
100
AcDbEntity
  8
0
  6
ByLayer
 62
  256
370
   20
100
AcDbCircle
 10
144
 20
13
 40
2
  0
ARC
  5
136
100
AcDbEntity
  8
0
  6
ByLayer
 62
    7
370
   20
100
AcDbCircle
 10
145.3395460971115
 20
10.0388994860503
 40
1.25
100
AcDbArc
 50
241.210997645844
 51
347.471202354156
  0
LINE
  5
137
100
AcDbEntity
  8
0
  6
ByLayer
 62
    7
370
   20
100
AcDbLine
 10
146.559779969968
 20
9.767736628096216
 11
146.8851762091633
 21
6.622245046877559
  0
LINE
  5
138
100
AcDbEntity
  8
0
  6
ByLayer
 62
    7
370
   20
100
AcDbLine
 10
146.8851762091633
 20
6.622245046877559
 11
144.7375642690758
 21
8.943400568335264
  0
LINE
  5
139
100
AcDbEntity
  8
0
  6
ByLayer
 62
    7
370
   20
100
AcDbLine
 10
144.824336059761
 20
11.17778429910787
 11
145.8547561344621
 21
8.900014672992711
  0
CIRCLE
  5
13A
100
AcDbEntity
  8
0
  6
ByLayer
 62
  256
370
   20
100
AcDbCircle
 10
150
 20
19
 40
2
  0
ARC
  5
13B
100
AcDbEntity
  8
0
  6
ByLayer
 62
    7
370
   20
100
AcDbCircle
 10
151.3395460971115
 20
16.0388994860503
 40
1.25
100
AcDbArc
 50
241.210997645844
 51
347.471202354156
  0
LINE
  5
13C
100
AcDbEntity
  8
0
  6
ByLayer
 62
    7
370
   20
100
AcDbLine
 10
152.559779969968
 20
15.76773662809622
 11
152.8851762091633
 21
12.62224504687756
  0
LINE
  5
13D
100
AcDbEntity
  8
0
  6
ByLayer
 62
    7
370
   20
100
AcDbLine
 10
152.8851762091633
 20
12.62224504687756
 11
150.7375642690758
 21
14.94340056833526
  0
LINE
  5
13E
100
AcDbEntity
  8
0
  6
ByLayer
 62
    7
370
   20
100
AcDbLine
 10
150.824336059761
 20
17.17778429910787
 11
151.8547561344621
 21
14.90001467299271
  0
CIRCLE
  5
13F
100
AcDbEntity
  8
0
  6
ByLayer
 62
  256
370
   20
100
AcDbCircle
 10
158
 20
12
 40
2
  0
ARC
  5
140
100
AcDbEntity
  8
0
  6
ByLayer
 62
    7
370
   20
100
AcDbCircle
 10
159.3395460971115
 20
9.038899486050298
 40
1.25
100
AcDbArc
 50
241.210997645844
 51
347.471202354156
  0
LINE
  5
141
100
AcDbEntity
  8
0
  6
ByLayer
 62
    7
370
   20
100
AcDbLine
 10
160.559779969968
 20
8.767736628096216
 11
160.8851762091633
 21
5.622245046877559
  0
LINE
  5
142
100
AcDbEntity
  8
0
  6
ByLayer
 62
    7
370
   20
100
AcDbLine
 10
160.8851762091633
 20
5.622245046877559
 11
158.7375642690758
 21
7.943400568335264
  0
LINE
  5
143
100
AcDbEntity
  8
0
  6
ByLayer
 62
    7
370
   20
100
AcDbLine
 10
158.824336059761
 20
10.17778429910787
 11
159.8547561344621
 21
7.900014672992711
  0
CIRCLE
  5
144
100
AcDbEntity
  8
0
  6
ByLayer
 62
  256
370
   20
100
AcDbCircle
 10
157
 20
22
 40
2
  0
ARC
  5
145
100
AcDbEntity
  8
0
  6
ByLayer
 62
    7
370
   20
100
AcDbCircle
 10
158.3395460971115
 20
19.0388994860503
 40
1.25
100
AcDbArc
 50
241.210997645844
 51
347.471202354156
  0
LINE
  5
146
100
AcDbEntity
  8
0
  6
ByLayer
 62
    7
370
   20
100
AcDbLine
 10
159.559779969968
 20
18.76773662809622
 11
159.8851762091633
 21
15.62224504687756
  0
LINE
  5
147
100
AcDbEntity
  8
0
  6
ByLayer
 62
    7
370
   20
100
AcDbLine
 10
159.8851762091633
 20
15.62224504687756
 11
157.7375642690758
 21
17.94340056833526
  0
LINE
  5
148
100
AcDbEntity
  8
0
  6
ByLayer
 62
    7
370
   20
100
AcDbLine
 10
157.824336059761
 20
20.17778429910787
 11
158.8547561344621
 21
17.90001467299271
  0
CIRCLE
  5
149
100
AcDbEntity
  8
0
  6
ByLayer
 62
  256
370
   20
100
AcDbCircle
 10
136
 20
89
 40
2
  0
ARC
  5
14A
100
AcDbEntity
  8
0
  6
ByLayer
 62
    7
370
   20
100
AcDbCircle
 10
133.9697414610497
 20
91.53782392317105
 40
1.25
100
AcDbArc
 50
75.52969764584402
 51
181.789902354156
  0
LINE
  5
14B
100
AcDbEntity
  8
0
  6
ByLayer
 62
    7
370
   20
100
AcDbLine
 10
132.7203513603162
 20
91.49878066268734
 11
131.6271354545685
 21
94.46608229606072
  0
LINE
  5
14C
100
AcDbEntity
  8
0
  6
ByLayer
 62
    7
370
   20
100
AcDbLine
 10
131.6271354545685
 20
94.46608229606072
 11
134.2820891591907
 21
92.74817053281063
  0
LINE
  5
14D
100
AcDbEntity
  8
0
  6
ByLayer
 62
    7
370
   20
100
AcDbLine
 10
134.7506101298767
 20
90.56173779887449
 11
133.1888727922226
 21
92.5139100474676
  0
CIRCLE
  5
14E
100
AcDbEntity
  8
0
  6
ByLayer
 62
  256
370
   20
100
AcDbCircle
 10
144
 20
90
 40
2
  0
ARC
  5
14F
100
AcDbEntity
  8
0
  6
ByLayer
 62
    7
370
   20
100
AcDbCircle
 10
146.2980970388563
 20
92.29809703885628
 40
1.25
100
AcDbArc
 50
351.869897645844
 51
98.13010235415604
  0
LINE
  5
150
100
AcDbEntity
  8
0
  6
ByLayer
 62
    7
370
   20
100
AcDbLine
 10
146.1213203435596
 20
93.53553390593274
 11
148.9497474683058
 21
94.94974746830583
  0
LINE
  5
151
100
AcDbEntity
  8
0
  6
ByLayer
 62
    7
370
   20
100
AcDbLine
 10
148.9497474683058
 20
94.94974746830583
 11
147.5355339059327
 21
92.12132034355963
  0
LINE
  5
152
100
AcDbEntity
  8
0
  6
ByLayer
 62
    7
370
   20
100
AcDbLine
 10
145.4142135623731
 20
91.41421356237308
 11
147.1819805153395
 21
93.18198051533948
  0
CIRCLE
  5
153
100
AcDbEntity
  8
0
  6
ByLayer
 62
  256
370
   20
100
AcDbCircle
 10
134
 20
80
 40
2
  0
ARC
  5
154
100
AcDbEntity
  8
0
  6
ByLayer
 62
    7
370
   20
100
AcDbCircle
 10
132.3875475292236
 20
82.82178968555188
 40
1.25
100
AcDbArc
 50
66.61479764584402
 51
172.875002354156
  0
LINE
  5
155
100
AcDbEntity
  8
0
  6
ByLayer
 62
    7
370
   20
100
AcDbLine
 10
131.1472001327207
 20
82.97683269890187
 11
130.5270254475585
 21
86.07770086118867
  0
LINE
  5
156
100
AcDbEntity
  8
0
  6
ByLayer
 62
    7
370
   20
100
AcDbLine
 10
130.5270254475585
 20
86.07770086118867
 11
132.8836860930604
 21
83.96911114245661
  0
LINE
  5
157
100
AcDbEntity
  8
0
  6
ByLayer
 62
    7
370
   20
100
AcDbLine
 10
133.0077215564453
 20
81.73648596033962
 11
131.7673735020019
 21
83.90709341076415
  0
CIRCLE
  5
158
100
AcDbEntity
  8
0
  6
ByLayer
 62
  256
370
   20
100
AcDbCircle
 10
145
 20
80
 40
2
  0
ARC
  5
159
100
AcDbEntity
  8
0
  6
ByLayer
 62
    7
370
   20
100
AcDbCircle
 10
146.8027724507371
 20
82.70416558125856
 40
1.25
100
AcDbArc
 50
3.179897645844024
 51
109.440102354156
  0
LINE
  5
15A
100
AcDbEntity
  8
0
  6
ByLayer
 62
    7
370
   20
100
AcDbLine
 10
146.3867459143661
 20
83.88290300792964
 11
148.8828945092798
 21
85.8243566365569
  0
LINE
  5
15B
100
AcDbEntity
  8
0
  6
ByLayer
 62
    7
370
   20
100
AcDbLine
 10
148.8828945092798
 20
85.8243566365569
 11
148.0508478105252
 21
82.77350457670681
  0
LINE
  5
15C
100
AcDbEntity
  8
0
  6
ByLayer
 62
    7
370
   20
100
AcDbLine
 10
146.1093984312228
 20
81.6641018961591
 11
147.4961464702513
 21
83.74422926635802
  0
CIRCLE
  5
15D
100
AcDbEntity
  8
0
  6
ByLayer
 62
  256
370
   20
100
AcDbCircle
 10
154
 20
75
 40
2
  0
ARC
  5
15E
100
AcDbEntity
  8
0
  6
ByLayer
 62
    7
370
   20
100
AcDbCircle
 10
154.4596192755781
 20
78.21733587328353
 40
1.25
100
AcDbArc
 50
28.73979764584402
 51
135.000002354156
  0
LINE
  5
15F
100
AcDbEntity
  8
0
  6
ByLayer
 62
    7
370
   20
100
AcDbLine
 10
153.5757357627781
 20
79.1012193134499
 11
154.9899492089374
 21
81.92964649630298
  0
LINE
  5
160
100
AcDbEntity
  8
0
  6
ByLayer
 62
    7
370
   20
100
AcDbLine
 10
154.9899492089374
 20
81.92964649630298
 11
155.5556347617218
 21
78.81837668232492
  0
LINE
  5
161
100
AcDbEntity
  8
0
  6
ByLayer
 62
    7
370
   20
100
AcDbLine
 10
154.282842631125
 20
76.9798989989437
 11
154.6363959200312
 21
79.45477274762335
  0
LINE
  5
162
100
AcDbEntity
  8
0
  6
ByLayer
 62
  256
370
   20
100
AcDbLine
 10
295
 20
100
 11
295
 21
0
  0
LINE
  5
163
100
AcDbEntity
  8
0
  6
ByLayer
 62
  256
370
   20
100
AcDbLine
 10
300
 20
100
 11
300
 21
0
  0
LINE
  5
164
100
AcDbEntity
  8
0
  6
ByLayer
 62
  256
370
   20
100
AcDbLine
 10
320
 20
100
 11
320
 21
0
  0
LINE
  5
165
100
AcDbEntity
  8
0
  6
ByLayer
 62
  256
370
   20
100
AcDbLine
 10
325
 20
100
 11
325
 21
0
  0
ARC
  5
166
100
AcDbEntity
  8
0
  6
ByLayer
 62
    1
370
   20
100
AcDbCircle
 10
140.0000113446401
 20
-3.749999999980185
 40
1.25
100
AcDbArc
 50
216.870097645844
 51
323.130302354156
  0
LINE
  5
167
100
AcDbEntity
  8
0
  6
ByLayer
 62
    1
370
   20
100
AcDbLine
 10
141.0000139626279
 20
-4.499996509317116
 11
140.0000244346095
 21
-7.499999999957355
  0
LINE
  5
168
100
AcDbEntity
  8
0
  6
ByLayer
 62
    1
370
   20
100
AcDbLine
 10
140.0000244346095
 20
-7.499999999957355
 11
139.0000139626401
 21
-4.50000349063413
  0
ARC
  5
169
100
AcDbEntity
  8
0
  6
ByLayer
 62
    1
370
   20
100
AcDbCircle
 10
285.0000113446401
 20
-3.74999999998019
 40
1.25
100
AcDbArc
 50
216.870097645844
 51
323.130302354156
  0
LINE
  5
16A
100
AcDbEntity
  8
0
  6
ByLayer
 62
    1
370
   20
100
AcDbLine
 10
286.0000139626279
 20
-4.499996509317114
 11
285.0000244346095
 21
-7.499999999957353
  0
LINE
  5
16B
100
AcDbEntity
  8
0
  6
ByLayer
 62
    1
370
   20
100
AcDbLine
 10
285.0000244346095
 20
-7.499999999957353
 11
284.0000139626401
 21
-4.500003490634128
  0
CIRCLE
  5
16C
100
AcDbEntity
  8
0
  6
ByLayer
 62
  256
370
   20
100
AcDbCircle
 10
288
 20
80
 40
2
  0
ARC
  5
16D
100
AcDbEntity
  8
0
  6
ByLayer
 62
    7
370
   20
100
AcDbCircle
 10
291.25
 20
79.99999999999997
 40
1.25
100
AcDbArc
 50
306.869897645844
 51
53.13010235415604
  0
LINE
  5
16E
100
AcDbEntity
  8
0
  6
ByLayer
 62
    7
370
   20
100
AcDbLine
 10
292
 20
81.00000000000001
 11
295
 21
79.99999999999999
  0
LINE
  5
16F
100
AcDbEntity
  8
0
  6
ByLayer
 62
    7
370
   20
100
AcDbLine
 10
295
 20
79.99999999999999
 11
292
 21
78.99999999999999
  0
LINE
  5
170
100
AcDbEntity
  8
0
  6
ByLayer
 62
    7
370
   20
100
AcDbLine
 10
290
 20
79.99999999999999
 11
292.5
 21
80.00000000000001
  0
CIRCLE
  5
171
100
AcDbEntity
  8
0
  6
ByLayer
 62
  256
370
   20
100
AcDbCircle
 10
288
 20
40
 40
2
  0
ARC
  5
172
100
AcDbEntity
  8
0
  6
ByLayer
 62
    7
370
   20
100
AcDbCircle
 10
291.25
 20
39.99999999999997
 40
1.25
100
AcDbArc
 50
306.869897645844
 51
53.13010235415604
  0
LINE
  5
173
100
AcDbEntity
  8
0
  6
ByLayer
 62
    7
370
   20
100
AcDbLine
 10
292
 20
41.00000000000001
 11
295
 21
39.99999999999999
  0
LINE
  5
174
100
AcDbEntity
  8
0
  6
ByLayer
 62
    7
370
   20
100
AcDbLine
 10
295
 20
39.99999999999999
 11
292
 21
38.99999999999999
  0
LINE
  5
175
100
AcDbEntity
  8
0
  6
ByLayer
 62
    7
370
   20
100
AcDbLine
 10
290
 20
39.99999999999999
 11
292.5
 21
40.00000000000001
  0
CIRCLE
  5
176
100
AcDbEntity
  8
0
  6
ByLayer
 62
  256
370
   20
100
AcDbCircle
 10
282.5
 20
10
 40
2
  0
ARC
  5
177
100
AcDbEntity
  8
0
  6
ByLayer
 62
    7
370
   20
100
AcDbCircle
 10
279.2618729427515
 20
10.27754848426
 40
1.25
100
AcDbArc
 50
121.970897645844
 51
228.231102354156
  0
LINE
  5
178
100
AcDbEntity
  8
0
  6
ByLayer
 62
    7
370
   20
100
AcDbLine
 10
278.4292133189987
 20
9.345251347628102
 11
275.5255724920801
 21
10.59779673532919
  0
LINE
  5
179
100
AcDbEntity
  8
0
  6
ByLayer
 62
    7
370
   20
100
AcDbLine
 10
275.5255724920801
 20
10.59779673532919
 11
278.6000123862357
 21
11.33794492131953
  0
LINE
  5
17A
100
AcDbEntity
  8
0
  6
ByLayer
 62
    7
370
   20
100
AcDbLine
 10
280.5073064263086
 20
10.17079906723692
 11
278.0164394591944
 21
10.38429790128303
  0
CIRCLE
  5
17B
100
AcDbEntity
  8
0
  6
ByLayer
 62
  256
370
   20
100
AcDbCircle
 10
282.9
 20
20
 40
2
  0
ARC
  5
17C
100
AcDbEntity
  8
0
  6
ByLayer
 62
    7
370
   20
100
AcDbCircle
 10
279.6665964497325
 20
19.67197335303797
 40
1.25
100
AcDbArc
 50
132.662697645844
 51
238.9229023541561
  0
LINE
  5
17D
100
AcDbEntity
  8
0
  6
ByLayer
 62
    7
370
   20
100
AcDbLine
 10
279.021357675659
 20
18.60138149596436
 11
275.9357461994238
 21
19.29348106808174
  0
LINE
  5
17E
100
AcDbEntity
  8
0
  6
ByLayer
 62
    7
370
   20
100
AcDbLine
 10
275.9357461994238
 20
19.29348106808174
 11
278.8194951236824
 21
20.59116829612904
  0
LINE
  5
17F
100
AcDbEntity
  8
0
  6
ByLayer
 62
    7
370
   20
100
AcDbLine
 10
280.9102131998354
 20
19.79813744802336
 11
278.4229796996296
 21
19.54580925805253
  0
CIRCLE
  5
180
100
AcDbEntity
  8
0
  6
ByLayer
 62
  256
370
   20
100
AcDbCircle
 10
282
 20
30
 40
2
  0
ARC
  5
181
100
AcDbEntity
  8
0
  6
ByLayer
 62
    7
370
   20
100
AcDbCircle
 10
278.7633470845893
 20
29.70575876365951
 40
1.25
100
AcDbArc
 50
132.064327645844
 51
238.324532354156
  0
LINE
  5
182
100
AcDbEntity
  8
0
  6
ByLayer
 62
    7
370
   20
100
AcDbLine
 10
278.1069629460608
 20
28.64196373514681
 11
275.0287475668076
 21
29.36624964480505
  0
LINE
  5
183
100
AcDbEntity
  8
0
  6
ByLayer
 62
    7
370
   20
100
AcDbLine
 10
275.0287475668076
 20
29.36624964480505
 11
277.9258914160051
 21
30.63375014463037
  0
LINE
  5
184
100
AcDbEntity
  8
0
  6
ByLayer
 62
    7
370
   20
100
AcDbLine
 10
280.0082135905164
 20
29.81892846994431
 11
277.518480578662
 21
29.59258905737465
  0
CIRCLE
  5
185
100
AcDbEntity
  8
0
  6
ByLayer
 62
  256
370
   20
100
AcDbCircle
 10
282.5
 20
40
 40
2
  0
ARC
  5
186
100
AcDbEntity
  8
0
  6
ByLayer
 62
    7
370
   20
100
AcDbCircle
 10
279.258260774353
 20
40.23157459468052
 40
1.25
100
AcDbArc
 50
122.783897645844
 51
229.044102354156
  0
LINE
  5
187
100
AcDbEntity
  8
0
  6
ByLayer
 62
    7
370
   20
100
AcDbLine
 10
278.4389133854558
 20
39.28755666248459
 11
275.517792437068
 21
40.49877605008108
  0
LINE
  5
188
100
AcDbEntity
  8
0
  6
ByLayer
 62
    7
370
   20
100
AcDbLine
 10
275.517792437068
 20
40.49877605008108
 11
278.5814208283361
 21
41.28247310903663
  0
LINE
  5
189
100
AcDbEntity
  8
0
  6
ByLayer
 62
    7
370
   20
100
AcDbLine
 10
280.505083553448
 20
40.14250744288032
 11
278.0114379952579
 21
40.32064174648067
  0
CIRCLE
  5
18A
100
AcDbEntity
  8
0
  6
ByLayer
 62
  256
370
   20
100
AcDbCircle
 10
283
 20
50.00000000000001
 40
2
  0
ARC
  5
18B
100
AcDbEntity
  8
0
  6
ByLayer
 62
    7
370
   20
100
AcDbCircle
 10
279.7625757386592
 20
50.28562939638923
 40
1.25
100
AcDbArc
 50
121.827897645844
 51
228.088102354156
  0
LINE
  5
18C
100
AcDbEntity
  8
0
  6
ByLayer
 62
    7
370
   20
100
AcDbLine
 10
278.9275918640761
 20
49.35541333052797
 11
276.0270862063428
 21
50.61520177683829
  0
LINE
  5
18D
100
AcDbEntity
  8
0
  6
ByLayer
 62
    7
370
   20
100
AcDbLine
 10
276.0270862063428
 20
50.61520177683829
 11
279.1033638003156
 21
51.34767441443006
  0
LINE
  5
18E
100
AcDbEntity
  8
0
  6
ByLayer
 62
    7
370
   20
100
AcDbLine
 10
281.0077389160979
 20
50.17577193623953
 11
278.5174125612203
 21
50.39548685653888
  0
ARC
  5
18F
100
AcDbEntity
  8
0
  6
ByLayer
 62
    7
370
   20
100
AcDbCircle
 10
278.7994536329524
 20
59.43519653650264
 40
1.25
100
AcDbArc
 50
136.877897645844
 51
243.138102354156
  0
LINE
  5
190
100
AcDbEntity
  8
0
  6
ByLayer
 62
    7
370
   20
100
AcDbLine
 10
278.2346516908638
 20
58.32007377814242
 11
275.1065155171283
 21
58.7835002324672
  0
LINE
  5
191
100
AcDbEntity
  8
0
  6
ByLayer
 62
    7
370
   20
100
AcDbLine
 10
275.1065155171283
 20
58.7835002324672
 11
277.8870803287115
 21
60.28964077324864
  0
LINE
  5
192
100
AcDbEntity
  8
0
  6
ByLayer
 62
    7
370
   20
100
AcDbLine
 10
280.0304330048938
 20
59.65242863784778
 11
277.5684742610111
 21
59.21796443515746
  0
CIRCLE
  5
193
100
AcDbEntity
  8
0
  6
ByLayer
 62
  256
370
   20
100
AcDbCircle
 10
282.3
 20
90
 40
2
  0
ARC
  5
194
100
AcDbEntity
  8
0
  6
ByLayer
 62
    7
370
   20
100
AcDbCircle
 10
279.0905291985538
 20
90.51166119128237
 40
1.25
100
AcDbArc
 50
117.811897645844
 51
224.0721023541561
  0
LINE
  5
195
100
AcDbEntity
  8
0
  6
ByLayer
 62
    7
370
   20
100
AcDbLine
 10
278.1924478778255
 20
89.64220737344098
 11
275.3872936584236
 21
91.10203948891585
  0
LINE
  5
196
100
AcDbEntity
  8
0
  6
ByLayer
 62
    7
370
   20
100
AcDbLine
 10
275.3872936584236
 20
91.10203948891585
 11
278.5073163032301
 21
91.61726632817711
  0
LINE
  5
197
100
AcDbEntity
  8
0
  6
ByLayer
 62
    7
370
   20
100
AcDbLine
 10
280.3249410452639
 20
90.31486842540454
 11
277.8561173518437
 21
90.70845395716016
  0
CIRCLE
  5
198
100
AcDbEntity
  8
0
  6
ByLayer
 62
  256
370
   20
100
AcDbCircle
 10
282.4999999999999
 20
70.00000000000001
 40
2
  0
ARC
  5
199
100
AcDbEntity
  8
0
  6
ByLayer
 62
    7
370
   20
100
AcDbCircle
 10
279.2905291985538
 20
70.51166119128239
 40
1.25
100
AcDbArc
 50
117.811897645844
 51
224.0721023541561
  0
LINE
  5
19A
100
AcDbEntity
  8
0
  6
ByLayer
 62
    7
370
   20
100
AcDbLine
 10
278.3924478778255
 20
69.642207373441
 11
275.5872936584236
 21
71.10203948891586
  0
LINE
  5
19B
100
AcDbEntity
  8
0
  6
ByLayer
 62
    7
370
   20
100
AcDbLine
 10
275.5872936584236
 20
71.10203948891586
 11
278.70731630323
 21
71.61726632817712
  0
LINE
  5
19C
100
AcDbEntity
  8
0
  6
ByLayer
 62
    7
370
   20
100
AcDbLine
 10
280.5249410452639
 20
70.31486842540455
 11
278.0561173518437
 21
70.70845395716017
  0
CIRCLE
  5
19D
100
AcDbEntity
  8
0
  6
ByLayer
 62
  256
370
   20
100
AcDbCircle
 10
287.2
 20
90.00000000000001
 40
2
  0
ARC
  5
19E
100
AcDbEntity
  8
0
  6
ByLayer
 62
    7
370
   20
100
AcDbCircle
 10
290.3902450452426
 20
89.37964804239469
 40
1.25
100
AcDbArc
 50
295.865897645844
 51
42.12610235415602
  0
LINE
  5
19F
100
AcDbEntity
  8
0
  6
ByLayer
 62
    7
370
   20
100
AcDbLine
 10
291.3173329657157
 20
90.21810375840664
 11
294.0712970205226
 21
88.66385732208091
  0
LINE
  5
1A0
100
AcDbEntity
  8
0
  6
ByLayer
 62
    7
370
   20
100
AcDbLine
 10
294.0712970205226
 20
88.66385732208091
 11
290.9355779148816
 21
88.25487603825729
  0
LINE
  5
1A1
100
AcDbEntity
  8
0
  6
ByLayer
 62
    7
370
   20
100
AcDbLine
 10
289.1632277201493
 20
89.61824494916597
 11
291.617262370336
 21
89.14105113562347
  0
CIRCLE
  5
1A2
100
AcDbEntity
  8
0
  6
ByLayer
 62
  256
370
   20
100
AcDbCircle
 10
287.1
 20
70
 40
2
  0
ARC
  5
1A3
100
AcDbEntity
  8
0
  6
ByLayer
 62
    7
370
   20
100
AcDbCircle
 10
290.3295635480331
 20
70.36389461278701
 40
1.25
100
AcDbArc
 50
313.298647645844
 51
59.55885235415604
  0
LINE
  5
1A4
100
AcDbEntity
  8
0
  6
ByLayer
 62
    7
370
   20
100
AcDbLine
 10
290.9628798705679
 20
71.44158215359427
 11
294.0559830265329
 21
70.78377301215669
  0
LINE
  5
1A5
100
AcDbEntity
  8
0
  6
ByLayer
 62
    7
370
   20
100
AcDbLine
 10
294.0559830265329
 20
70.78377301215669
 11
291.1868150168983
 21
69.45415843172768
  0
LINE
  5
1A6
100
AcDbEntity
  8
0
  6
ByLayer
 62
    7
370
   20
100
AcDbLine
 10
289.0874237218665
 20
70.22393514633048
 11
291.5717033741997
 21
70.50385407924361
  0
CIRCLE
  5
1A7
100
AcDbEntity
  8
0
  6
ByLayer
 62
  256
370
   20
100
AcDbCircle
 10
287.3
 20
60
 40
2
  0
ARC
  5
1A8
100
AcDbEntity
  8
0
  6
ByLayer
 62
    7
370
   20
100
AcDbCircle
 10
290.444755762854
 20
60.82037259339668
 40
1.25
100
AcDbArc
 50
321.490797645844
 51
67.75100235415604
  0
LINE
  5
1A9
100
AcDbEntity
  8
0
  6
ByLayer
 62
    7
370
   20
100
AcDbLine
 10
290.9180462947752
 20
61.97730650352027
 11
294.0733201046087
 21
61.76695635500828
  0
LINE
  5
1AA
100
AcDbEntity
  8
0
  6
ByLayer
 62
    7
370
   20
100
AcDbLine
 10
294.0733201046087
 20
61.76695635500828
 11
291.4228909676347
 21
60.04207218791777
  0
LINE
  5
1AB
100
AcDbEntity
  8
0
  6
ByLayer
 62
    7
370
   20
100
AcDbLine
 10
289.2352343156025
 20
60.5048446728595
 11
291.6542772101056
 21
61.13590051393392
  0
CIRCLE
  5
1AC
100
AcDbEntity
  8
0
  6
ByLayer
 62
  256
370
   20
100
AcDbCircle
 10
287.4
 20
50
 40
2
  0
ARC
  5
1AD
100
AcDbEntity
  8
0
  6
ByLayer
 62
    7
370
   20
100
AcDbCircle
 10
290.6106006584488
 20
50.50452295484737
 40
1.25
100
AcDbArc
 50
315.800487645844
 51
62.06069235415603
  0
LINE
  5
1AE
100
AcDbEntity
  8
0
  6
ByLayer
 62
    7
370
   20
100
AcDbLine
 10
291.1962706704455
 20
51.60882845471953
 11
294.3151398797359
 21
51.08666482582515
  0
LINE
  5
1AF
100
AcDbEntity
  8
0
  6
ByLayer
 62
    7
370
   20
100
AcDbLine
 10
294.3151398797359
 20
51.08666482582515
 11
291.506746334967
 21
49.63307420336638
  0
LINE
  5
1B0
100
AcDbEntity
  8
0
  6
ByLayer
 62
    7
370
   20
100
AcDbLine
 10
289.3757542513531
 20
50.31047566452146
 11
291.8454470655445
 21
50.69857024517334
  0
CIRCLE
  5
1B1
100
AcDbEntity
  8
0
  6
ByLayer
 62
  256
370
   20
100
AcDbCircle
 10
287.4
 20
30
 40
2
  0
ARC
  5
1B2
100
AcDbEntity
  8
0
  6
ByLayer
 62
    7
370
   20
100
AcDbCircle
 10
290.5333703088969
 20
29.13716136657928
 40
1.25
100
AcDbArc
 50
291.473897645844
 51
37.73410235415601
  0
LINE
  5
1B3
100
AcDbEntity
  8
0
  6
ByLayer
 62
    7
370
   20
100
AcDbLine
 10
291.5219445750795
 20
29.9021587000659
 11
294.1487975883933
 21
28.14157832801695
  0
LINE
  5
1B4
100
AcDbEntity
  8
0
  6
ByLayer
 62
    7
370
   20
100
AcDbLine
 10
294.1487975883933
 20
28.14157832801695
 11
290.9909669545129
 21
27.97393081766777
  0
LINE
  5
1B5
100
AcDbEntity
  8
0
  6
ByLayer
 62
    7
370
   20
100
AcDbLine
 10
289.3282278823981
 20
29.4690223794334
 11
291.7385127353957
 21
28.8053003537252
  0
CIRCLE
  5
1B6
100
AcDbEntity
  8
0
  6
ByLayer
 62
  256
370
   20
100
AcDbCircle
 10
287.5
 20
20
 40
2
  0
ARC
  5
1B7
100
AcDbEntity
  8
0
  6
ByLayer
 62
    7
370
   20
100
AcDbCircle
 10
290.6737017996758
 20
20.70008348554621
 40
1.25
100
AcDbArc
 50
319.309497645844
 51
65.56970235415604
  0
LINE
  5
1B8
100
AcDbEntity
  8
0
  6
ByLayer
 62
    7
370
   20
100
AcDbLine
 10
291.1906842194329
 20
21.83816484364947
 11
294.3356654146863
 21
21.50787212271495
  0
LINE
  5
1B9
100
AcDbEntity
  8
0
  6
ByLayer
 62
    7
370
   20
100
AcDbLine
 10
294.3356654146863
 20
21.50787212271495
 11
291.6215048259229
 21
19.88511758231049
  0
LINE
  5
1BA
100
AcDbEntity
  8
0
  6
ByLayer
 62
    7
370
   20
100
AcDbLine
 10
289.453047261339
 20
20.43082060648997
 11
291.8943563380126
 21
20.96934636460249
  0
CIRCLE
  5
1BB
100
AcDbEntity
  8
0
  6
ByLayer
 62
  256
370
   20
100
AcDbCircle
 10
287.4
 20
10
 40
2
  0
ARC
  5
1BC
100
AcDbEntity
  8
0
  6
ByLayer
 62
    7
370
   20
100
AcDbCircle
 10
290.5215235720269
 20
9.095240037755353
 40
1.25
100
AcDbArc
 50
290.7058976458439
 51
36.96610235415604
  0
LINE
  5
1BD
100
AcDbEntity
  8
0
  6
ByLayer
 62
    7
370
   20
100
AcDbLine
 10
291.5202628462621
 20
9.846918068630274
 11
294.1232815397501
 21
8.051286235165421
  0
LINE
  5
1BE
100
AcDbEntity
  8
0
  6
ByLayer
 62
    7
370
   20
100
AcDbLine
 10
294.1232815397501
 20
8.051286235165421
 11
290.9634874848808
 21
7.925980485844508
  0
LINE
  5
1BF
100
AcDbEntity
  8
0
  6
ByLayer
 62
    7
370
   20
100
AcDbLine
 10
289.3209375827857
 20
9.443224638618682
 11
291.7221095612679
 21
8.747255436892079
  0
ARC
  5
1C0
100
AcDbEntity
  8
0
  6
ByLayer
 62
    7
370
   20
100
AcDbCircle
 10
195.0000130899694
 20
91.25000000002282
 40
1.25
100
AcDbArc
 50
36.87009764584399
 51
143.130302354156
  0
LINE
  5
1C1
100
AcDbEntity
  8
0
  6
ByLayer
 62
    7
370
   20
100
AcDbLine
 10
194.0000104719816
 20
91.99999650935976
 11
195
 21
95
  0
LINE
  5
1C2
100
AcDbEntity
  8
0
  6
ByLayer
 62
    7
370
   20
100
AcDbLine
 10
195
 20
95
 11
196.0000104719694
 21
92.00000349067678
  0
ARC
  5
1C3
100
AcDbEntity
  8
0
  6
ByLayer
 62
    7
370
   20
100
AcDbCircle
 10
194.9999869100305
 20
8.74999999997717
 40
1.25
100
AcDbArc
 50
216.870097645844
 51
323.130302354156
  0
LINE
  5
1C4
100
AcDbEntity
  8
0
  6
ByLayer
 62
    7
370
   20
100
AcDbLine
 10
195.9999895280183
 20
8.000003490640239
 11
195
 21
5
  0
LINE
  5
1C5
100
AcDbEntity
  8
0
  6
ByLayer
 62
    7
370
   20
100
AcDbLine
 10
195
 20
5
 11
193.9999895280305
 21
7.999996509323225
  0
MTEXT
  5
1C6
100
AcDbEntity
  8
0
  6
ByLayer
 62
    7
370
   20
100
AcDbMText
 10
195
 20
50
 30
0
 40
5
 41
3.571427777777778
 71
    5
 72
    1
  1
L
  7
romant
210
0
220
0
230
1
 50
0
 73
    2
 44
1
  0
LINE
  5
1C7
100
AcDbEntity
  8
0
  6
ByLayer
 62
    7
370
   20
100
AcDbLine
 10
195
 20
92.50000000000001
 11
195
 21
54
  0
LINE
  5
1C8
100
AcDbEntity
  8
0
  6
ByLayer
 62
    7
370
   20
100
AcDbLine
 10
195
 20
46
 11
195
 21
7.5
  0
MTEXT
  5
1C9
100
AcDbEntity
  8
0
  6
ByLayer
 62
    7
370
   20
100
AcDbMText
 10
335
 20
50
 30
0
 40
5
 41
3.571427777777778
 71
    5
 72
    1
  1
L
  7
romant
210
0
220
0
230
1
 50
0
 73
    2
 44
1
  0
CIRCLE
  5
1CA
100
AcDbEntity
  8
0
  6
ByLayer
 62
  256
370
   20
100
AcDbCircle
 10
282.6
 20
80.00000000000001
 40
2
  0
ARC
  5
1CB
100
AcDbEntity
  8
0
  6
ByLayer
 62
    7
370
   20
100
AcDbCircle
 10
279.35
 20
80.00000000000004
 40
1.25
100
AcDbArc
 50
126.869897645844
 51
233.130102354156
  0
LINE
  5
1CC
100
AcDbEntity
  8
0
  6
ByLayer
 62
    7
370
   20
100
AcDbLine
 10
278.6
 20
79
 11
275.6
 21
80.00000000000003
  0
LINE
  5
1CD
100
AcDbEntity
  8
0
  6
ByLayer
 62
    7
370
   20
100
AcDbLine
 10
275.6
 20
80.00000000000003
 11
278.6
 21
81.00000000000003
  0
LINE
  5
1CE
100
AcDbEntity
  8
0
  6
ByLayer
 62
    7
370
   20
100
AcDbLine
 10
280.6
 20
80.00000000000003
 11
278.1
 21
80
  0
ARC
  5
1CF
100
AcDbEntity
  8
0
  6
ByLayer
 62
    7
370
   20
100
AcDbCircle
 10
328.75
 20
50.00000000000001
 40
1.25
100
AcDbArc
 50
126.869897645844
 51
233.130102354156
  0
LINE
  5
1D0
100
AcDbEntity
  8
0
  6
ByLayer
 62
    7
370
   20
100
AcDbLine
 10
328
 20
48.99999999999997
 11
325
 21
50
  0
LINE
  5
1D1
100
AcDbEntity
  8
0
  6
ByLayer
 62
    7
370
   20
100
AcDbLine
 10
325
 20
50
 11
328
 21
51
  0
LINE
  5
1D2
100
AcDbEntity
  8
0
  6
ByLayer
 62
  256
370
   20
100
AcDbLine
 10
345
 20
100
 11
345
 21
0
  0
LINE
  5
1D3
100
AcDbEntity
  8
0
  6
ByLayer
 62
  256
370
   20
100
AcDbLine
 10
350
 20
100
 11
350
 21
0
  0
ARC
  5
1D4
100
AcDbEntity
  8
0
  6
ByLayer
 62
    7
370
   20
100
AcDbCircle
 10
341.25
 20
49.99999999999999
 40
1.25
100
AcDbArc
 50
306.869897645844
 51
53.13010235415604
  0
LINE
  5
1D5
100
AcDbEntity
  8
0
  6
ByLayer
 62
    7
370
   20
100
AcDbLine
 10
342
 20
51.00000000000003
 11
345
 21
50
  0
LINE
  5
1D6
100
AcDbEntity
  8
0
  6
ByLayer
 62
    7
370
   20
100
AcDbLine
 10
345
 20
50
 11
342
 21
49
  0
LINE
  5
1D7
100
AcDbEntity
  8
0
  6
ByLayer
 62
    7
370
   20
100
AcDbLine
 10
338
 20
50
 11
342.5
 21
50
  0
LINE
  5
1D8
100
AcDbEntity
  8
0
  6
ByLayer
 62
    7
370
   20
100
AcDbLine
 10
327.5
 20
50
 11
332
 21
50
  0
ARC
  5
1D9
100
AcDbEntity
  8
0
  6
ByLayer
 62
    7
370
   20
100
AcDbCircle
 10
205.0000130899694
 20
96.25000000002282
 40
1.25
100
AcDbArc
 50
36.87009764584399
 51
143.130302354156
  0
LINE
  5
1DA
100
AcDbEntity
  8
0
  6
ByLayer
 62
    7
370
   20
100
AcDbLine
 10
204.0000104719816
 20
96.99999650935976
 11
205
 21
100
  0
LINE
  5
1DB
100
AcDbEntity
  8
0
  6
ByLayer
 62
    7
370
   20
100
AcDbLine
 10
205
 20
100
 11
206.0000104719694
 21
97.00000349067678
  0
LINE
  5
1DC
100
AcDbEntity
  8
0
  6
ByLayer
 62
    7
370
   20
100
AcDbLine
 10
205
 20
97.50000000000001
 11
205
 21
54
  0
ARC
  5
1DD
100
AcDbEntity
  8
0
  6
ByLayer
 62
    7
370
   20
100
AcDbCircle
 10
204.9999869100306
 20
3.74999999997717
 40
1.25
100
AcDbArc
 50
216.870097645844
 51
323.130302354156
  0
LINE
  5
1DE
100
AcDbEntity
  8
0
  6
ByLayer
 62
    7
370
   20
100
AcDbLine
 10
205.9999895280184
 20
3.000003490640239
 11
205
 21
0
  0
LINE
  5
1DF
100
AcDbEntity
  8
0
  6
ByLayer
 62
    7
370
   20
100
AcDbLine
 10
205
 20
0
 11
203.9999895280306
 21
2.999996509323225
  0
LINE
  5
1E0
100
AcDbEntity
  8
0
  6
ByLayer
 62
    7
370
   20
100
AcDbLine
 10
205
 20
46
 11
205
 21
2.5
  0
MTEXT
  5
1E1
100
AcDbEntity
  8
0
  6
ByLayer
 62
    7
370
   20
100
AcDbMText
 10
205
 20
50
 30
0
 40
5
 41
4.047616666666666
 71
    5
 72
    1
  1
D
  7
romant
210
0
220
0
230
1
 50
0
 73
    2
 44
1
  0
ARC
  5
1E2
100
AcDbEntity
  8
0
  6
ByLayer
 62
    7
370
   20
100
AcDbCircle
 10
255.0000130899694
 20
96.25000000002282
 40
1.25
100
AcDbArc
 50
36.87009764584399
 51
143.130302354156
  0
LINE
  5
1E3
100
AcDbEntity
  8
0
  6
ByLayer
 62
    7
370
   20
100
AcDbLine
 10
254.0000104719816
 20
96.99999650935976
 11
255
 21
100
  0
LINE
  5
1E4
100
AcDbEntity
  8
0
  6
ByLayer
 62
    7
370
   20
100
AcDbLine
 10
255
 20
100
 11
256.0000104719694
 21
97.00000349067678
  0
LINE
  5
1E5
100
AcDbEntity
  8
0
  6
ByLayer
 62
    7
370
   20
100
AcDbLine
 10
255
 20
97.50000000000001
 11
255
 21
54
  0
ARC
  5
1E6
100
AcDbEntity
  8
0
  6
ByLayer
 62
    7
370
   20
100
AcDbCircle
 10
254.9999869100306
 20
3.749999999977177
 40
1.25
100
AcDbArc
 50
216.870097645844
 51
323.130302354156
  0
LINE
  5
1E7
100
AcDbEntity
  8
0
  6
ByLayer
 62
    7
370
   20
100
AcDbLine
 10
255.9999895280184
 20
3.000003490640239
 11
255
 21
0
  0
LINE
  5
1E8
100
AcDbEntity
  8
0
  6
ByLayer
 62
    7
370
   20
100
AcDbLine
 10
255
 20
0
 11
253.9999895280306
 21
2.999996509323225
  0
LINE
  5
1E9
100
AcDbEntity
  8
0
  6
ByLayer
 62
    7
370
   20
100
AcDbLine
 10
255
 20
46
 11
255
 21
2.5
  0
MTEXT
  5
1EA
100
AcDbEntity
  8
0
  6
ByLayer
 62
    7
370
   20
100
AcDbMText
 10
255
 20
50
 30
0
 40
5
 41
4.047616666666666
 71
    5
 72
    1
  1
D
  7
romant
210
0
220
0
230
1
 50
0
 73
    2
 44
1
  0
MTEXT
  5
1EB
100
AcDbEntity
  8
0
  6
ByLayer
 62
    7
370
   20
100
AcDbMText
 10
280
 20
96
 30
0
 40
5
 41
3.095238888888889
 71
    5
 72
    1
  1
e
  7
romant
210
0
220
0
230
1
 50
0
 73
    2
 44
1
  0
MTEXT
  5
1EC
100
AcDbEntity
  8
0
  6
ByLayer
 62
    7
370
   20
100
AcDbMText
 10
290
 20
96
 30
0
 40
5
 41
4.523811111111112
 71
    5
 72
    1
  1
h
  7
romant
210
0
220
0
230
1
 50
0
 73
    2
 44
1
  0
MTEXT
  5
1ED
100
AcDbEntity
  8
0
  6
ByLayer
 62
    7
370
   20
100
AcDbMText
 10
122
 20
22
 30
0
 40
5
 41
3.095238888888889
 71
    5
 72
    1
  1
e
  7
romant
210
0
220
0
230
1
 50
0
 73
    2
 44
1
  0
MTEXT
  5
1EE
100
AcDbEntity
  8
0
  6
ByLayer
 62
    7
370
   20
100
AcDbMText
 10
124
 20
76
 30
0
 40
5
 41
4.523811111111112
 71
    5
 72
    1
  1
h
  7
romant
210
0
220
0
230
1
 50
0
 73
    2
 44
1
  0
CIRCLE
  5
1EF
100
AcDbEntity
  8
0
  6
ByLayer
 62
  256
370
   20
100
AcDbCircle
 10
282
 20
60
 40
2
  0
LINE
  5
1F0
100
AcDbEntity
  8
0
  6
ByLayer
 62
    1
370
   60
100
AcDbLine
 10
140
 20
105
 11
140
 21
-5
  0
LINE
  5
1F1
100
AcDbEntity
  8
0
  6
ByLayer
 62
    1
370
   60
100
AcDbLine
 10
285
 20
105
 11
285
 21
-5
  0
MTEXT
  5
1F2
100
AcDbEntity
  8
0
  6
ByLayer
 62
  256
370
   60
100
AcDbMText
 10
230
 20
90
 30
0
 40
5
 41
28.09524444444444
 71
    5
 72
    1
  1
readout
  7
romans
210
0
220
0
230
1
 50
0
 73
    2
 44
1
  0
MTEXT
  5
1F3
100
AcDbEntity
  8
0
  6
ByLayer
 62
  256
370
   60
100
AcDbMText
 10
230
 20
10
 30
0
 40
5
 41
13.80952944444444
 71
    5
 72
    1
  1
bias
  7
romans
210
0
220
0
230
1
 50
0
 73
    2
 44
1
  0
ENDSEC
  0
SECTION
  2
OBJECTS
  0
DICTIONARY
  5
C
330
0
100
AcDbDictionary
281
    1
  3
ACAD_GROUP
350
D
  0
DICTIONARY
  5
D
330
C
100
AcDbDictionary
281
    1
  0
ENDSEC
  0
EOF
